<svg width="1487.3" height="960.99" enable-background="new 0 0 1920 1080" version="1.1" viewBox="0 0 1487.3 960.99" xml:space="preserve" xmlns="http://www.w3.org/2000/svg">
<g transform="rotate(180 851.65 510.5)">
	<path d="m1703.3 804.25c-9.35 10.19-21.86 13.85-35.26 17.11-10.46 2.55-19.62 9.86-30.08 12.43-15.99 3.93-32.61 5.59-51.78 8.67-5.29 3.16-13.3 9.54-22.53 13.06-12.99 4.95-25.69.56-31.55-10.96-2.17-4.27.29-11.38 2.42-16.54.9-2.18 6.58-4.06 9.74-3.66 10.19 1.29 20.23 3.71 33.43 6.3-10.18-10.13-18.82-17.84-26.28-26.47-4.42-5.11-6.56-11.93-10.5-17.49-4.46-6.3-9.65-12.16-14.8-17.99-1.77-2-4.43-3.27-6.61-4.94-10.93-8.39-20.74-18.97-33.07-24.61-11.87-5.43-26.34-5.75-40.76-8.53 7.61-9.1 1.88-14.77-2.86-18.52-7.64 4.26-13.86 7.98-20.32 11.28-8.08 4.13-16.1 23.46-11.81 33.98 5.96 14.61.28 27.88-.82 42-1.65 21.22-18.85 32.57-26.49 49.48-1.32 2.91-4.51 5.47-7.47 7.24-15.91 9.5-32.13 18.52-48.02 28.04-19.14 11.47-37.95 16.64-56.05-2.15-12.61 13.32-20.6 27.35-23.16 43.99-.4 2.62-1.59 5.21-1.57 7.81.13 18.41-11.44 24.64-28.76 26.15-4.12.36-8.84 3.4-11.68 6.51-15.73 17.23-37.61 26.31-56.76 38.96-7.53 4.97-15.86 9.03-24.24 12.63-4.47 1.92-10.45 3.82-14.68 2.55-18.48-5.57-36.55-12.34-54.8-18.62-7.13-2.45-14.4-6.8-21.45-6.53-6 .22-11.69 5.97-17.69 8.96-1.9.95-4.35.91-8.03 1.61 2.58-5.27 4.51-9.22 6.86-14.01-17.76-2.42-33.83-9.62-52.33-2.62-6.71 2.54-16.86-3.05-25.19-4.88 12.74-2.3 24.43-4.4 36.12-6.55 2.75-.5 5.5-1.78 8.2-1.67 26.91 1.13 53.84 2.14 80.69 4.05 5.21.37 11.57 3.33 14.94 7.07 17.96 19.94 46.84 15.61 61.18-1.31 13.06-15.41 33.75-25.06 51.16-37.13 3.23-2.24 7.41-3.43 10.22-6 2.75-2.52 4.32-6.2 6.4-9.37-4.62-1.45-10.09-5.16-13.71-3.94-14.83 5-29.53 10.72-43.41 17.73-9.17 4.62-17.09 7.8-26.49 1.58-2.27-1.5-5.33-1.91-7.63-3.38-14.54-9.31-25.61-5.97-40.82 2.67-15.07 8.56-35.73 8.31-54.52 9.66 30.92-2.46 54.82-21.48 81.25-32.17-14.27-17.63-34.33-6.95-53.01-6.3-14.93.52-29.9.1-44.53-2.17 28.41-4.72 56.82-9.45 84.15-13.99 5.57 3.47 11.38 6.53 16.52 10.4 9.46 7.11 18.95 14.27 27.62 22.2 6.36 5.81 10.64 3.81 16.36-.63 9.88-7.68 19.71-15.9 30.95-21.28 4.68-2.24 13.1 1.8 19.55 3.79 5.97 1.84 11.56 4.75 14.43 5.96 11.12-11.45 20.2-21.64 30.26-30.88 8.96-8.23 8.66-16.16-1.59-22.81-12.6-8.17-25.02-16.61-37.11-25.44-5.17-3.77-8.77-5.29-15.6-2.03-8.42 4.02-19.04 3.94-27.44 7.99-13.74 6.63-26.63 14.9-39.54 22.96-14.08 8.78-28.53 13.29-45.34 7.48-15.85-5.48-32.25-9.62-47.78-15.77-7.42-2.94-13.71-8.81-19.94-13.97-11.78-9.76-22.97-20.14-34.82-29.82-2.45-2-6.91-3.36-10.02-2.81-28.5 5-47.71-11.02-67.84-25.72-19.02-13.89-26.66-34.43-37.1-53.51-5.49-10.05-12.07-19.65-19.02-28.88-7.35-9.75-18.39-7.77-28.79-6.11-19.02 3.05-37.95 6.61-57 9.52-21.37 3.26-39.3-4.86-58.27-13.45-21.49-9.74-33.02-28.25-49.98-41.73-13.61-10.82-15.6-11.19-29.86-1.93-10.8 7.01-22.09 9.67-35.36 6.67-15.19-3.44-30.95-4.64-46.13-8.12-14.78-3.39-28.97-8-38.94-20.77-4.42-5.66-12.6-8.67-18.99-12.99-2.52-1.71-6.54-3.45-6.92-5.63-1.92-11.05-10.99-12.36-19.86-15.29-15.09-4.99-30.6-9.73-44.29-17.26-8.8-4.84-14.53-14.58-21.86-21.92-4.36-4.36-9.16-8.33-14.8-13.4-35.15 24.74-74.41 40.53-118.03 45.6-.43-.98-.85-1.97-1.28-2.95 19.78-7.23 39.57-14.46 59.35-21.69-.2-1.05-.41-2.1-.61-3.15-18.84-2.12-37.68-4.25-56.52-6.38.03-.44.06-.88.1-1.32 15.68 0 31.62-1.69 46.99.4 23.05 3.13 41.59-.33 52.6-21.96-16.47-25.31-38.58-31.33-65.33-16.67-24.09 13.2-47.6 9.5-71.28-1.22 21.2 8.66 41.64 6.76 62.02-3.65-.67-3.63-1.39-7.57-2.39-13-26.89 3.99-34-11.3-37.88-32.7-2.43-13.4-10.48-25.88-16.01-38.78 1.32-.56 2.64-1.12 3.96-1.68 8.22 16.95 17.24 33.6 24.38 50.95 4.95 12.02 14.71 16.4 26.33 8.77 11.63-7.63 19.53 3.57 29.41 4.65 2.67.29 5.08 2.57 7.67 3.81 10.99 5.27 21.99 10.51 33 15.72 27.67 13.1 43.44 39.08 67.59 55.89 10.24 7.13 21.41 13.85 33.24 17.97 27.48 9.58 50.8 24.44 70.67 44.47 10.59 10.67 23.51 12.01 38.06 10.69 6.61-.6 13.54 2.55 20.4 3.58 13.48 2.02 27.58 7.57 39.76-5.71-2.89-2.11-5.57-5.71-8.33-5.77-9.35-.2-12.82-6.22-17.09-12.37-2.05-2.95-5.81-6.06-9.28-6.69-12.91-2.34-26.07-3.4-39.04-5.46-25.08-3.98-48.88-10.53-66.81-29.42-7.03-7.4-15.15-13.88-24.91-22.72 6.98 1.35 12.83 1.17 17.05 3.57 9.61 5.46 21.09 10.5 26.96 18.78 10.07 14.2 24.39 15.99 39.38 18.04 14.6 2 29.27 3.69 43.97 4.85 3.46.27 9.04-1.25 10.27-3.56 1.4-2.64-.47-7.26-1.91-10.64-.6-1.43-4.34-3.16-5.61-2.6-13.86 6.06-26.62-3.42-40.21-2.43-3.6.26-8.94-4.03-11.25-7.55-13.07-19.85-25.46-40.1-38.4-60.72 25.51 10.52 34.52 34.42 51.28 51.53 13.8 14.08 29.63 14.66 42.09-.47 2.47-3 5.24-5.78 7.7-8.78 9.35-11.4 8.26-21.79-3.55-30.48-15.5-11.41-32.46-21.26-40.41-39.78-1.22-2.84-7.1-5.08-11.05-5.46-22.73-2.16-39.24-16-57.64-26.4-13.93-7.87-28.15-15.28-42.27-22.84-2.06-1.1-5.43-1.36-6.28-2.94-4.91-9.11-10.8-18.12-13.41-27.88-4.28-16.02-10.91-29.67-24.75-40.6-19.56-15.45-31.49-36.24-40.08-58.64-1.57-4.1-1.06-9.03-1-13.56.11-7.24 1.75-14.6.79-21.68-2.21-16.28-.34-31.5 8.81-45.69 8.09-12.54 8.29-25.42 1.68-38.63-8.17-16.32-7.6-33.68-8.36-51.31-1.03-24.12 2.7-49.6-13.77-71.43 10.84 11.23 19.91 22.76 20.7 38.93 1.06 21.97 2.3 44.06 5.88 65.74 1.59 9.65 7.96 19.21 14.29 27.33 4.68 6 4.81 10.17 1.75 16.29-6.03 12.03-11.73 24.24-16.81 36.66-1.95 4.76-3.68 10.81-2.28 15.38 5.82 18.95 13.15 37.48 19.41 56.32 5.22 15.73 17.53 25.81 29.76 36.34 5.13 4.42 10.67 10.06 12.39 16.08 9.55 33.47 34.09 54.63 63.38 72.34 4.4 2.66 8.59 5.7 12.6 8.87 12.16 9.65 25.25 16.15 41.47 19.07 10.65 1.91 20.6 9.61 29.76 16.1 9.86 6.99 18.44 15.6 29.73 25.37-1.79-15.54-2.37-28.58-4.97-41.25-4.3-20.98-1.72-41.37.78-62.34 3.09-25.89 23.87-41.66 34.62-62.96.68-1.34 3.25-2.29 5.09-2.57 15.12-2.26 23.47-13.2 34.67-21.09 15.79-11.12 18.33-24.76 22.85-39.42.76-2.47 2.32-4.71 3.59-7.22-14.48-16.8-28.94-33.05-42.59-49.89-2.43-3-2.42-8.54-1.94-12.74 1.42-12.58 7.35-26.13-11.1-32.71-1.31-.47-1.97-3.17-2.46-4.95-3.17-11.49-12.35-17.27-22.85-21.9-6.72-2.97-13.36-6.08-19.66-9.81 25.66.63 43.88 12.27 58.96 38.27 1.45-7.51 2.49-12.86 3.52-18.22.47-.02.94-.04 1.4-.06.41 2.78.58 5.61 1.26 8.33 1.95 7.78 4.14 15.51 6.17 23.27.58 2.21 1.91 4.75 1.3 6.67-5.48 17.08 7.4 28.43 15.63 40.07 8.74 12.37 21.64 22.11 34.11 34.36 10.53-10.7 20.66-19.36 28.67-29.53 12.74-16.18 22.31-25.63 46.65-40.59-12.15-4.63-23.07-9.54-34.51-12.89-7.21-2.11-9.92-5.4-8.84-12.12 1.5-9.31 2.94-18.64 4.41-27.96 1.05.05 2.09.1 3.14.14v26.4c1.25.48 2.5.97 3.76 1.45 6.59-7.84 13.17-15.67 19.9-23.68 3.19 11.43-9.11 16.95-13.24 25.71 11.09 16.15 32.26 17.54 44.71 3.57 4.23-4.75 10-9.03 15.99-11.48 11.47-4.69 14-10.39 6.98-20.1-9.22-12.74-9.77-20.63-1.81-34.56-6.54 15.35 5.46 25.39 11.46 37.02 3.38 6.54 9.27 6.19 13.42.9 8.08-10.29 21.26-12.71 31.13-19.56 9.66-6.71 15.74-18.27 22.72-28.12 3.91-5.51 6.45-11.9 11.26-17.47 0 2.36.68 4.95-.11 7.03-4.89 12.84-8.94 26.15-15.6 38.14-5.3 9.56-14.39 15.73-25.77 20.8-20.48 9.12-40.61 20.11-54.4 38.45-8.15 10.83-16 21.65-30.59 26.49-4.71 1.56-7.66 8.26-11.08 12.84-4.4 5.89-7.88 12.48-12.8 17.93-7.87 8.73-10.67 17.98-8.92 29.51 2.36 15.6-17.34 43.8-33.18 52.4-21.23 11.52-42.03 23.83-62.27 36.85-13.63 8.77-22.85 21.25-26.05 37.11-4.67 23.13-10.1 46.15-13.88 69.41-1.3 8 2 16.57 2.09 24.89.33 30.33.55 60.68.09 91-.24 15.68 13.8 23.27 20.86 34.72 1.26 2.05 11.5.1 17.18-1.42 22.99-6.14 35.43 9.07 49.07 21.4 10.7 9.67 20.45 20.29 31.02 30.1 1.95 1.81 6.24 3.11 8.71 2.38 12.93-3.84 25.62-8.4 39.37-13.05-2.4-2.68-3.76-5.16-5.91-6.44-24.09-14.4-39.06-36.25-54.59-57.92-3.61-5.04-11.88-7.12-18.09-10.43-4.24-2.26-8.63-4.28-11.99-7.84 11.09 2.59 22.13 5.42 33.29 7.7 8.63 1.76 13.4 6.67 14.41 14.63 1.84 14.44 16.77 18.42 23.53 29.96 3.37-7.97 6.52-13.87 8.25-20.11 1.15-4.13 2.2-10.27-.07-12.92-9.94-11.6-21.03-22.33-31.92-33.18-2.15-2.14-5.28-3.4-7.92-5.12-7.13-4.66-14.24-9.36-20.95-13.78.53-.14 3.79-1.03 6.74-1.84-9.17-11.75-18.38-23.55-27.6-35.35.89-.61 1.78-1.22 2.68-1.83 26.44 24.68 52.87 49.35 79.31 74.03 10.47 9.77 11.79 21.1 5.66 33.25-5.45 10.8-5.63 21.9 2.53 30.52 11.91 12.58 23.55 13.23 39.15 6.28 11.21-4.99 22.67-9.8 34.51-13.08 5.01-1.39 11.91.13 16.87 2.42 8.97 4.15 16.79 10.51 25.75 14.71 5.53 2.59 12.26 2.89 21.31 4.83 1.86-26.84 4.61-50.83 4.92-74.85.46-35.9-18.32-62.69-48.16-83.35-1.28-.89-2.36-2.03-5.68-4.94 27.31 9.19 41.27 29.32 60.9 46.86 1.44-6.88 2.97-13.09 4-19.38 2.57-15.65 3.22-31.79 7.78-46.89 5.27-17.46 4.45-32.12-8.55-46.31-4.74-5.17-6.27-12.98-6.72-20.64 6.33 10.24 12.66 20.47 21.12 34.13 6.84-14.41 12.15-25.58 17.85-37.57 0 5.06 1.84 10.62-.3 13.66-12.37 17.55-7.19 39.24-16.21 57.56-8.99 18.26-5.32 36.94-.99 55.88 1.69 7.4.28 16.83-3.29 23.68-11.83 22.72-8.83 45.37-3.32 68.59 1.88 7.92 1.93 16.23 2.81 24.4 14.51-4.39 18.32-9.98 15.34-22.95-4.16-18.17-3.88-35.86 9.2-50.85 5.53-6.34 13.5-10.77 21.95-15.09-24.12 18.09-34.58 38.74-17.9 66.7 12.89-9.87 25.24-18.97 37.1-28.59 5.38-4.37 9.85-2.75 16.17-1.97 20.85 2.58 31.12 18.53 44.9 29.55 17.32 13.86 33.37 29.31 48.62 45.24 8.01 8.37 13.88 18.84 6.26 31.31-1.58 2.58-.47 7.8 1.27 10.85 12.59 21.99 30 39.77 53.64 51.39 10.91 5.36 22.8 7.16 34.98 9.35 12.37 2.22 22.88 14.14 33.98 22.08 4.12 2.95 7.12 7.85 11.61 9.58 2.7 1.04 10.14-1.79 10.58-3.81 3.28-15.3 15.81-23.34 26.72-32.73.87-.75 2.52-.93 3.03-1.79 12.72-21.68 36.12-20.92 57.39-24.37 11.01-1.79 17.19-5.31 14.65-17.85-1.24-6.11 2.51-13.12 4.11-20.21-13.39-9.95-27.01-20.06-40.62-30.17.36-.48.73-.97 1.09-1.45 8.52 3.08 17.03 6.17 25.54 9.25.95-23.09-15.52-32.98-34.88-40.44-11.81-4.55-21.43-11.22-26.64-19.79 14.29 6.66 29.55 14.9 45.72 20.97 15.24 5.72 27.06 12.2 27.35 30.06.12 7.24 3.74 14.42 6.21 23.19 7.23-5.23 13.26-8.67 18.07-13.25 11.54-11.01 24.47-7.79 37.87-4.78 16.61 3.73 21.36-1.52 16.37-17.29-.92-2.92-2.16-5.85-2.38-8.83-.64-8.67-5.57-9.56-14.05-11.15-17.91-3.36-35.26-9.69-52.52-15.64-2.84-.98-4.25-6.15-5.94-9.55-6.46-12.97-12.28-26.26-19.28-38.96-6-10.9-9.01-21.13-4.38-33.61 5.72-15.41 1.15-19.74-15.55-20.74-7.11-.43-14.11-3.89-20.96-6.46-13.66-5.13-26.77-13.47-40.86-15.28-22.3-2.88-38.34-15.58-51.07-22.03 20.74 4.81 47.94 9.17 73.52 17.82 14.01 4.74 26.36 9.65 41.98 8.93 20.59-.94 37.61 17.83 38.67 38.11.83 15.84 7.43 29.7 13.6 44.44 10.02 23.9 28.89 24.42 49.51 25.73 8.6.55 22.07 16.16 23.67 25.84 1.08 6.52 4.21 12.72 6.16 19.14 1.42 4.65 3.21 9.39 3.42 14.15.5 11.39.16 22.81.16 33.96 20.43 5.61 26.06 1.61 26.28-17.71.03-2.66.28-5.34.72-7.97 2.88-17.29-4.39-29.94-18.96-40.09-3.91-2.72-7.06-8.04-8.01-12.64-3.04-14.64-7.57-27.95-16.54-40.94-5.45-7.9-3.11-20.83-3.52-31.53-.19-4.83 1.44-9.73 4.74-15.39.68 3.55 1.8 7.09 1.92 10.66.13 3.71-.66 7.46-1.13 11.19-1.52 12.15 3.52 21.75 12.06 29.1 7.28-9.73 14.64-19.57 23.42-31.31-4.11 13.52-10.36 24.48-10.13 35.32.46 21.53 7.59 41.44 27.19 55.47 3.17 2.27 4.8 7.37 5.65 11.44 3.13 15.01 5.49 30.12-4.84 44.18 9.04 4.88 16.08 4.41 24.04-1.02 10.33-7.05 22.43-11.85 32.43-19.25 6.53-4.83 11.22-12.21 15.76-19.03 9.11-13.7 15.57-29.47 26.74-41.33 16.89-17.92 29.1-15.35 44.56 3.6 4.77 5.85 13.24 8.99 20.01 13.37 1.89-.9 3.77-1.8 5.66-2.69v74.68c-9.79 13.53-20.85 26.6-12.95 44.85 4.69 10.84 8.66 21.96 12.95 32.95zm-717.82-31.13c3.1 17.21 5.57 30.15 17.79 39.29 8.93 6.68 19.14 12.78 25.57 21.3 14.48 19.22 35.42 24.51 57.74 28.73 13.1 2.48 22.24-1.56 30.4-11.26 3.75-4.46 10.18-7.49 16.01-9.65 7.78-2.89 16.32-3.88 24.25-6.47 7.48-2.45 8.87-7.56 3.51-13.2-5.35-5.64-11.68-10.47-16.93-16.19-14.8-16.11-29.53-32.28-43.65-48.92-3.04-3.58-4.89-9.27-4.7-13.89.86-20.13-9.58-30.88-29.6-34.81-13.51-2.65-16.3-12.19-15.6-23.27.38-6.03.9-12.39 3.24-17.88 4.99-11.72-5.51-14.7-11.75-19.32-6.53-4.84-11.47.06-16.27 4.74-13.32 12.99-26.95 25.71-40.71 38.28-4.95 4.53-5.86 8.48-1.15 13.68 5.49 6.06 10.82 12.31 15.53 18.92 5.93 8.31 6.24 15.72-1.28 24.73-6.57 7.84-9.3 18.57-12.4 25.19zm-1.63-37.53c-13.81-14.05-26.31-27.48-39.81-39.94-2.83-2.6-9.57-2.78-14.16-2.05-18.6 2.94-37.12 7.34-54.14-4.87-.62-.45-1.44-.67-2.19-.94-9.64-3.35-13.57 3.68-16.14 9.62-1.09 2.52 2.95 7.67 5.68 10.84 2.68 3.1 7.64 4.59 9.89 7.85 7.32 10.57 12.22 23.06 21.07 32.18 16.21 16.7 18.24 44.63 46.06 52.01 6.22 1.65 12.15 5.7 18.31 5.9 24.39.77 26.01-1.9 15.99-22.2-9.14-18.51-7.47-29.67 6.48-44.45 1.8-1.9 3.13-4.18 2.96-3.95zm634.49 68.98c.02.85.04 1.7.06 2.56 7.58-.84 15.18-1.62 22.75-2.52 12.99-1.54 20.46-7.78 19.37-20.16-1.01-11.44-5.89-22.55-8.74-33.89-3.09-12.31-.79-22.99 10.99-30.74 9.87-6.49 19.63-13.16 29.15-20.09 2.69-1.96 6.78-6.04 6.13-7.57-2.32-5.4-5.55-13.28-10.04-14.39-8.26-2.04-17.67-.07-26.56.72-.68.06-1.27 3.99-1.4 6.15-.36 6.06-.85 12.15-.58 18.21.35 7.65-3.15 9.75-10.93 9.63-5.12-.08-11.49 1.2-15.2 4.2-8.8 7.11-17.23 14.98-24.22 23.68-12.69 15.81-27.86 21.31-48.14 15.03-2.78-.86-8.49 2.29-10.69 5.1-4.44 5.67-8.81 12.46-1.71 19.27 8.77 8.42 16.48 20.35 27.16 23.82 12.83 4.17 28.29.99 42.6.99zm-236.05-9.91c-15.35-11.86-15.46-11.85-30.77.3-4 3.17-8.59 5.81-12.04 9.44-4.18 4.39-8.9 9.11-10.8 14.5-3.53 10.01-5.18 20.62-8.17 33.34 3.75-1.04 8.07-1.71 11.86-3.42 4.77-2.15 8.92-5.53 13.69-7.7 13.29-6.05 25.23-13.4 30.52-27.26 2.24-5.89 3.62-12.08 5.71-19.2z"/>
</g>
</svg>
