<svg width="915.42" height="271.64" version="1.1" viewBox="0 0 915.42 271.64" xml:space="preserve" xmlns="http://www.w3.org/2000/svg">
<style type="text/css">
	.st0{fill:#EFEFEF;}
</style>
<g transform="translate(-433.57 -436.42)">
	<path class="st0" d="m890.31 708.03h-441.7c-17.25 0-18.08-2.22-10.43-17.51 18.78-37.51 48.8-63.12 88.25-73.53 22.5-5.94 47.72-2.81 71.62-1.68 10.24.49 14.27.06 18.23-11.02 22.3-62.45 63.08-109.34 122.23-140.1 49.64-25.81 102.71-33.72 156.68-23.34 65.99 12.68 120.46 46.51 159.16 102.93 5.12 7.47 9.77 9.79 19.95 8.45 60.3-7.89 125.38 21.76 155.19 77.75 2.61 4.91 4.8 9.98 12.72 6.56 35.02-15.11 67.12-1.6 85.4 19.39 7.94 9.12 13.69 20.75 18.19 32.12 6.55 16.56 3.52 20.01-13.8 20.01-58.72-.01-117.44-.03-176.16-.03h-265.53z"/>
</g>
</svg>
