<svg width="1109.2" height="437.99" version="1.1" viewBox="0 0 1109.2 437.99" xml:space="preserve" xmlns="http://www.w3.org/2000/svg">
<style type="text/css">
	.st0{fill:#EFEFEF;}
</style>
<g transform="translate(-405.72 -305)">
	<path class="st0" d="m1084 741.42c-134.93 0-269.86-.19-404.79.07-83.5.16-166.99 1.04-250.49 1.5-21.17.12-26.31-5.52-21.13-25.47 5.99-23.06 14.51-45.54 29.61-64.36 13.59-16.94 28.1-33.47 48.89-42.8 10.29-4.61 20.52-9.45 30.28-15.04 3.21-1.84 6.94-6.39 6.88-9.63-.51-26.9 5.98-52.39 16.06-76.92 8.3-20.21 17.18-40.38 27.99-59.35 13.44-23.58 32.7-42.83 52.39-61.66 20.22-19.35 43.93-33.52 67.86-47.41 8.26-4.8 17.74-7.66 26.84-10.88 10.64-3.77 21.35-7.54 32.29-10.26 12.34-3.07 25.01-4.83 37.47-7.45 9.71-2.05 19.22-5.58 29.01-6.53 8.52-.82 17.36.73 25.97 1.83 10.48 1.34 20.83 4.11 31.33 4.81 20.58 1.38 39.87 7.45 58.54 15.2 20.66 8.58 41.01 18.03 60.88 28.27 8.48 4.37 15.05 12.2 23.08 17.61 26.53 17.88 45.74 42.65 64.04 67.8 11.19 15.38 22.13 31.52 27.03 50.55 2.07 8.02 8.96 11.58 16.96 8.85 19.01-6.49 37.92-5.28 56.85-.06 14.4 3.97 29.59 6.44 42.87 12.77 15.06 7.18 29.22 16.9 42.2 27.4 10.88 8.8 20.84 19.42 28.76 30.87 8.91 12.88 15.34 27.49 22.32 41.59 2.18 4.4 5.05 6.62 9.01 4.28 14.7-8.7 31.03-5.59 46.68-6.7 20.32-1.44 40.2 2.28 58.55 10.79 20.55 9.53 37.75 23.71 52.89 40.56 17.17 19.1 25.56 42.24 33.1 65.87 2.74 8.58-2.55 15.2-12.12 15.41-6.69.14-13.39-.61-20.08-.61-74.57-.08-149.15-.1-223.72-.12-58.1-.02-116.2 0-174.3 0v-.78z"/>
</g>
</svg>
