<svg width="1376.4" height="227.6" version="1.1" viewBox="0 0 1376.4 227.6" xml:space="preserve" xmlns="http://www.w3.org/2000/svg">
<style type="text/css">
	.st0{fill:#FBD5D7;}
	.st1{fill:#F5A5B8;}
	.st2{fill:#C6788F;}
	.st3{fill:#F7B9CE;}
	.st4{fill:#F7BBCF;}
	.st5{fill:#F7BACC;}
	.st6{fill:#F7B9CF;}
	.st7{fill:#F6BAC9;}
	.st8{fill:#C48493;}
	.st9{fill:#906263;}
	.st10{fill:#C28095;}
</style>













<style type="text/css">
	.st0{fill:#FBD6D6;}
	.st1{fill:#F5A4B8;}
	.st2{fill:#DA7498;}
	.st3{fill:#CD7E95;}
	.st4{fill:#F7B8CB;}
	.st5{fill:#F7B7CB;}
	.st6{fill:#F7BCD1;}
	.st7{fill:#C58D98;}
	.st8{fill:#BD8F96;}
	.st9{fill:#CB8C9E;}
	.st10{fill:#C9889B;}
	.st11{fill:#BA9996;}
</style><style type="text/css">
	.st0{fill:#F5A5B8;}
	.st1{fill:#FBD6D6;}
	.st2{fill:#FBD6D5;}
	.st3{fill:#FBD5D6;}
	.st4{fill:#F6B7CE;}
	.st5{fill:#D395A8;}
	.st6{fill:#F6B4CA;}
	.st7{fill:#F6B3C9;}
	.st8{fill:#F7BACB;}
	.st9{fill:#DA7596;}
	.st10{fill:#91605C;}
	.st11{fill:#CB8A9D;}
	.st12{fill:#F7BACD;}
	.st13{fill:#CE91A2;}
	.st14{fill:#CD889D;}
	.st15{fill:#CC8E9F;}
	.st16{fill:#F8C4D6;}
</style><style type="text/css">
	.st0{fill:#FAD4D8;}
	.st1{fill:#F5ABC4;}
	.st2{fill:#F5A8BD;}
	.st3{fill:#F5A8BE;}
	.st4{fill:#F5A5B8;}
	.st5{fill:#F6B5CD;}
	.st6{fill:#F5A6B7;}
	.st7{fill:#CA838D;}
	.st8{fill:#976265;}
	.st9{fill:#CC808F;}
	.st10{fill:#C5808A;}
	.st11{fill:#B6747D;}
</style><style type="text/css">
	.st0{fill:#FBD8D7;}
	.st1{fill:#F5A6BC;}
	.st2{fill:#FCE2E4;}
</style><style type="text/css">
	.st0{fill:#F5A5B8;}
	.st1{fill:#91A982;}
	.st2{fill:#8D625B;}
	.st3{fill:#DB7498;}
	.st4{fill:#FBD6D9;}
	.st5{fill:#F6B3C9;}
	.st6{fill:#ACC399;}
	.st7{fill:#FAD3D9;}
	.st8{fill:#ACC39D;}
</style><style type="text/css">
	.st0{fill:#EFEFEF;}
</style><style type="text/css">
	.st0{fill:#EFEFEF;}
</style><style type="text/css">
	.st0{fill:#EAC86F;}
</style><style type="text/css">
	.st0{fill:#E8C362;}
	.st1{fill:#E9C568;}
</style><style type="text/css">
	.st0{fill:#EAC86F;}
</style><style type="text/css">
	.st0{fill:#EFEFEF;}
</style><style type="text/css">
	.st0{fill:#EFEFEF;}
</style><style type="text/css">
	.st0{fill:#F5A5B8;}
	.st1{fill:#91A982;}
	.st2{fill:#8D625B;}
	.st3{fill:#DB7498;}
	.st4{fill:#FBD6D9;}
	.st5{fill:#F6B3C9;}
	.st6{fill:#ACC399;}
	.st7{fill:#FAD3D9;}
	.st8{fill:#ACC39D;}
</style><style type="text/css">
	.st0{fill:#96AA84;}
	.st1{fill:#AFC69E;}
	.st2{fill:#7D916C;}
	.st3{fill:#7D926A;}
</style><style type="text/css">
	.st0{fill:#CDCDCD;}
</style><style type="text/css">
	.st0{fill:#DFDFDF;}
</style><style type="text/css">
	.st0{fill:#FBD8D7;}
	.st1{fill:#F5A6BC;}
	.st2{fill:#FCE2E4;}
</style><style type="text/css">
	.st0{fill:#FAD4D8;}
	.st1{fill:#F5ABC4;}
	.st2{fill:#F5A8BD;}
	.st3{fill:#F5A8BE;}
	.st4{fill:#F5A5B8;}
	.st5{fill:#F6B5CD;}
	.st6{fill:#F5A6B7;}
	.st7{fill:#CA838D;}
	.st8{fill:#976265;}
	.st9{fill:#CC808F;}
	.st10{fill:#C5808A;}
	.st11{fill:#B6747D;}
</style><style type="text/css">
	.st0{fill:#F5A5B8;}
	.st1{fill:#FBD6D6;}
	.st2{fill:#FBD6D5;}
	.st3{fill:#FBD5D6;}
	.st4{fill:#F6B7CE;}
	.st5{fill:#D395A8;}
	.st6{fill:#F6B4CA;}
	.st7{fill:#F6B3C9;}
	.st8{fill:#F7BACB;}
	.st9{fill:#DA7596;}
	.st10{fill:#91605C;}
	.st11{fill:#CB8A9D;}
	.st12{fill:#F7BACD;}
	.st13{fill:#CE91A2;}
	.st14{fill:#CD889D;}
	.st15{fill:#CC8E9F;}
	.st16{fill:#F8C4D6;}
</style><style type="text/css">
	.st0{fill:#FBD6D6;}
	.st1{fill:#F5A4B8;}
	.st2{fill:#DA7498;}
	.st3{fill:#CD7E95;}
	.st4{fill:#F7B8CB;}
	.st5{fill:#F7B7CB;}
	.st6{fill:#F7BCD1;}
	.st7{fill:#C58D98;}
	.st8{fill:#BD8F96;}
	.st9{fill:#CB8C9E;}
	.st10{fill:#C9889B;}
	.st11{fill:#BA9996;}
</style><style type="text/css">
	.st0{fill:#FBD5D7;}
	.st1{fill:#F5A5B8;}
	.st2{fill:#C6788F;}
	.st3{fill:#F7B9CE;}
	.st4{fill:#F7BBCF;}
	.st5{fill:#F7BACC;}
	.st6{fill:#F7B9CF;}
	.st7{fill:#F6BAC9;}
	.st8{fill:#C48493;}
	.st9{fill:#906263;}
	.st10{fill:#C28095;}
</style><style type="text/css">
	.st0{fill:#E8C362;}
	.st1{fill:#E9C568;}
</style><style type="text/css">
	.st0{fill:#EAC86F;}
</style><g transform="translate(-315.58 -400)">
	<path class="st0" d="m318.9 400h111.35c128.09 2.39 256.2 1.7 384.31 1.93 66.17.12 132.34.94 198.49-.2 24.81-.43 47.48 18.08 55.16 37.81 14.7 37.76-13.73 79.35-54.63 79.37-63.71.04-127.44.93-191.11-.55-21.17-.49-49.23 23.56-48.96 49.7.28 26.69 27.98 49.8 48.54 48.91 36.69-1.58 73.5-.74 110.25-.22 200.22 2.83 400.44.98 600.66 1.62 47.95.15 95.91.13 143.86.18 2.1 0 4.21-.1 6.3.03 3.69.22 9.09-.76 8.87 4.58-.21 4.91-5.6 4.47-9.29 4.4-21.33-.41-42.66.74-64.01-.85-16.03-1.19-32.17 1.17-48.16.76-33.92-.87-67.82-1.16-101.74-1.2-214.6-.21-429.2-.59-643.8-.52-29.54.01-54.99-21.67-60.2-55.01-4.2-26.92 27.06-60.49 55.11-60.83 39.2-.48 78.44-1.24 117.61-.06 26.93.81 53.76 1.18 80.67.06 29.74-1.24 53.84-36.14 43.65-63.96-6.66-18.19-25.62-36.6-50.93-36.28-82.25 1.03-164.54.95-246.8-.23-145.26-2.07-290.53-.49-435.79-1.37-2.8-.02-5.74.41-8.36-.3-5.78-1.57-5.5-4.52-1.05-7.77z"/>
</g></svg>
