<?xml version="1.0" encoding="utf-8"?>
<!-- Generator: Adobe Illustrator 26.0.0, SVG Export Plug-In . SVG Version: 6.00 Build 0)  -->
<svg version="1.1" id="Layer_1" xmlns="http://www.w3.org/2000/svg" xmlns:xlink="http://www.w3.org/1999/xlink" x="0px" y="0px"
	 viewBox="0 0 595.28 841.89" style="enable-background:new 0 0 595.28 841.89;" xml:space="preserve">
<style type="text/css">
	.st0{fill:#96AA84;}
	.st1{fill:#AFC69E;}
	.st2{fill:#7D916C;}
	.st3{fill:#7D926A;}
</style>
<path class="st0" d="M515.47,124.07c25.9,100.01,37.84,200.93,7.72,301.01c-29.93,99.46-87.14,176.8-188.64,210.93
	c-52.47,17.64-104.94,13.53-156.17-8.71c-6.62-22.62-1.48-35.8,16.62-43.06c48.17-19.32,96.66-37.13,137.07-33.01
	c-32.78-1.1-76.68,6.6-118.23,26.44c-6.81,3.25-15.81,9.07-22.57,2.34c-6.9-6.87-0.89-15.47,2.52-22.55
	c14.39-29.92,28.64-59.88,45.09-88.75c10.25-17.98,22.87-30.1,43.04-37.63c35.86-13.38,71.19-25.95,110.4-21.05
	c-37.89-5.44-72.57,5.99-106.78,19.56c-5.49,2.18-10.84,6.22-16.07,0.91c-5.87-5.97-2.35-12.3,0.77-18.32
	c11.53-22.26,24.23-43.85,37.38-65.12c7.86-12.71,17.82-23.58,34.32-24.6c12.35-0.77,20.31-11.1,31.41-14.76
	c22.07-7.27,43.69-16.3,60.98-15.85c-23.4,2.25-51.91,9.4-77.82,25.37c-4.89,3.01-12.02,6.45-16.24,1.3
	c-7.74-9.44,2.82-15.75,5.89-23.35c17.74-19.62,32.77-41.95,44.23-65.22c13.78-27.99,37.55-29.99,60.99-36.51
	c-2.6-1.65-6.07,0.98-9.44,1.8c-3.53,0.86-6.92,2.25-10.42,3.24c-4.3,1.22-9.17,2.38-12.25-1.57c-3.14-4.03-0.7-8.65,1.66-12.32
	c9.5-14.78,17.78-30.36,27.61-44.91c6.29-9.31,10.73-19.17,11.2-30.68c5.13-21.87,18.09-39.37,31.44-61.6
	C500.58,75.14,510.56,98.71,515.47,124.07z"/>
<path class="st1" d="M515.47,124.07c-7.51-22.51-15.02-45.01-24.1-72.24c-9.99,22.66-18.31,41.54-26.63,60.42
	c-11.37,31.41-32.65,56.73-49.94,84.49c-2.73,4.39-6.84,8.33-12.63,6.15c-4.88-1.84-4.65-6.9-5.03-11.36
	c-0.63-7.34-1.77-14.63-2.99-21.91c-0.58-2.92-4.38,0.72-1.68-0.39c0.77-0.32,1.1,0.19,1.54,1.31
	c17.13,43.49-8.31,73.91-30.34,105.3c-5.87,8.36-12.76,15.97-17.86,24.92c-9.96,6.77-10.11,28.27-24.53,24.16
	c-11.23-3.2-4.71-21.18-8.98-32c-6.53-16.57-10.64-34.04-15.53-44.83c3.35,6.94,6.66,20.3,11.51,33.09
	c12.53,33.04,9.66,62.74-12.32,91.39c-13.18,17.17-21.71,38.01-31.46,57.68c-2.66,5.36-4.88,12.07-11.45,11.81
	c-8.8-0.35-5.83-9.15-6.84-14.13c-6.84-33.75-21.77-64.43-29.75-84.25c11.36,24.46,26.2,61.02,32.72,100.46
	c1.17,7.06,0.39,13.6-3.34,19.18c-20.93,31.33-34.17,66.8-51.86,99.85c-3.19,5.96-3.78,16.6-13.09,15.09
	c-8.29-1.35-8.43-11.2-10.53-18.11c-11.68-38.37-24.09-76.39-37.88-95.55c13.76,18.06,24.83,55.66,37.17,92.67
	c6.76,20.27,15.82,40.4,5.64,62.16c-1.27,2.72-2.12,5.42-5.11,6.59c-16.36-19.87-39.05-32.85-53.97-54.77
	c-39.19-57.59-42.41-117.61-15.69-179.43c30.05-69.53,83.05-119.7,139.2-167.31c62.8-53.24,137.99-86.78,204.65-133.84
	c18.07-12.76,32.31-28.69,47.42-50.2C501,70.84,513.41,95.82,515.47,124.07z"/>
<path class="st2" d="M170.16,626.02c14.13-29.41,0.42-57.48-8.63-83.75c-12.96-37.64-27.63-75.49-54.23-106.62
	c-0.53-0.62,0.43-2.54,1.23-6.51c20.98,20.17,33.74,44.26,44.43,68.75c10.91,25,17.83,51.75,28.17,82.74
	c17.53-35.05,30.3-67.36,48.77-95.82c23.27-35.86,13.11-68.66-2.04-102.5c-10.14-22.64-13.65-48.79-37.28-66.74
	c24.16,3.28,51.76,61.8,61.76,126.06c19.35-33.74,38.07-65.13,55.45-97.27c8.11-15.01,5.94-31.86,0.82-47.77
	c-7.59-23.57-12.56-48.3-27.61-68.85c29.72,24.67,34.22,60.4,39.65,97.38c9.27-10.27,16.96-18.78,24.66-27.3
	c1.24-2.45,2.99-2.88,5.24-1.29c-3.69,5.92-7.39,11.84-11.08,17.76c37.28-13.05,71.12-29.39,112.83-25.58
	c-10.46,6.89-19.49,7.85-28.83,9.05c-35.36,4.57-67.36,20.67-97.12,37.85c-20.56,11.87-29.5,39.46-40.3,61.89
	c-4.77,9.89-20.64,20.06-12.54,29.35c6.68,7.66,21.47-3.26,31.93-7.32c31.87-12.38,64.2-18.67,98.38-12.07
	c2.86,0.55,5.76,1.19,8.45,2.28c1,0.41,1.47,2.21,3.6,5.69c-26.44-1.12-51.47-3.74-76.5,0.2c-28.02,4.41-53.53,15.25-76.33,30.7
	c-14.93,10.11-21.37,29.3-29.45,45.67c-13.89,28.14-26.83,56.77-41.78,88.61c58.08-18.95,112.7-44.82,173.33-25.35
	c-33.21-1.44-65.79,2.57-98.76,7.58c-27.78,4.21-49.65,20.38-75.11,28.82c-14.14,4.69-9.68,23.14-12.88,35.66
	c-8.52,41.35-11.3,82.44,9.11,121.75c3.21,6.18,4.79,10.78-0.48,15.67c-3.84,3.56-8.5,6.35-13.84,5.44c-7.45-1.26-7.67-8-8.77-13.8
	C156.08,712.33,158.67,668.92,170.16,626.02z"/>
<path class="st3" d="M350.55,296.53c-1.74,0.43-3.48,0.86-5.23,1.29c7.38-19.57,20.69-36.04,33.51-51.03
	c22.12-25.86,14.81-52.99,11.05-80.98c-0.67-4.97-2.07-9.85-0.25-15.58c9.23,14.79,8.86,32.43,12.66,52.38
	c28.23-27.09,41.4-61.65,62.44-90.35c0.59,25.13-20.46,39.38-28.96,60c-3.2,7.78-9.21,14.34-14.74,22.65
	c13.91,1.48,24.28-10.44,36.34-4.29c2.08,1.7,2,3.3-0.07,3.54c-45.65,5.23-64.6,41.33-85.12,75.59
	C366.21,279.73,360.82,290.15,350.55,296.53z"/>
</svg>
