<?xml version="1.0" encoding="utf-8"?>
<!-- Generator: Adobe Illustrator 26.0.0, SVG Export Plug-In . SVG Version: 6.00 Build 0)  -->
<svg version="1.1" id="Layer_1" xmlns="http://www.w3.org/2000/svg" xmlns:xlink="http://www.w3.org/1999/xlink" x="0px" y="0px"
	 viewBox="0 0 1920 1080" style="enable-background:new 0 0 1920 1080;" xml:space="preserve">
<style type="text/css">
	.st0{fill:#DFDFDF;}
</style>
<g>
	<path class="st0" d="M1569.28,795c-395.6,0-791.21,0-1186.81,0c0.3-12.85,9.8-21.33,15.75-31.2
		c21.39-35.49,42.27-71.24,60.12-108.66c5.3-11.11,16.32-16.93,23.33-26.72c22.53-31.44,40.88-65.41,61.19-98.18
		c17.38-28.05,37.48-53.95,58.64-79.11c20.47-24.34,45.52-38.16,78.64-35.2c15.23,1.36,27.61,5.73,36.11,19.15
		c12.94,20.41,31.52,37.22,38.99,61.14c0.27,0.87,0.67,1.24,0.69,1.25c22.34,15.63,32.94,42.79,56.99,57.09
		c13.85,8.23,26.9,7.19,38.8-0.76c10.15-6.79,20.21-10.08,32.03-9.37c12.61,0.76,24.25-3.51,36.33-6.25
		c37.81-8.58,68.96-31.61,103.88-46.35c9.18-3.88,16.21-11.63,24.02-17.86c8.26-6.59,17.12-10.22,27.82-7.32
		c11.37,3.08,20.57-2.49,29.37-8.14c23.17-14.87,48.34-23.99,75.75-20.09c36.39,5.18,74.04,3.93,108.42,20.68
		c19.97,9.73,37.83,21.38,52.41,38.59c16.3,19.25,36.25,35.02,54.22,52.72c46.23,45.54,85.79,95.64,112.42,155.3
		c12.19,27.31,29.99,50.7,51.17,71.72C1564.31,782.14,1571.46,786.17,1569.28,795z"/>
</g>
</svg>
