<?xml version="1.0" encoding="utf-8"?>
<!-- Generator: Adobe Illustrator 26.0.0, SVG Export Plug-In . SVG Version: 6.00 Build 0)  -->
<svg version="1.1" id="Layer_1" xmlns="http://www.w3.org/2000/svg" xmlns:xlink="http://www.w3.org/1999/xlink" x="0px" y="0px"
	 viewBox="0 0 1920 1080" style="enable-background:new 0 0 1920 1080;" xml:space="preserve">
<style type="text/css">
	.st0{fill:#FBD8D7;}
	.st1{fill:#F5A6BC;}
	.st2{fill:#FCE2E4;}
</style>
<path class="st0" d="M1093.22,307.84c163.28,53.97,278.45,163.21,344.61,322.91c33.59,81.07-33.05,216.64-114.14,247.65
	c-24.74,9.46-49.57,23.49-75.08,25.22c-126.74,8.62-233.08,71.85-346.83,119.17c-98.04,40.79-206.17,33.77-287.68-55.37
	c-78.2-85.52-114.18-180.13-57.51-296.07c21.78-44.56,25.24-98.46,65.42-134.02c70.23-8.27,140.61-9.19,203.77,28.14
	c52.12,30.8,82.01,13.16,104.16-36.19c33.94-75.63,109.95-123.14,132.52-206.88C1065.25,312.07,1081.71,310.4,1093.22,307.84z"/>
<path class="st1" d="M1093.22,307.84c-21.93,99.3-107.72,158.86-147.46,247.81c-25.3,56.63-62.4,95.77-125.22,33.05
	c-55.42-55.34-139.96-2.26-198.52-51.36c29.14-105.74,34.29-211.93,11.17-320.38c-10.92-51.23,12.79-94.6,48.92-129.11
	c27.2-25.98,69.11-34.36,84.63-0.03C832.01,232.26,965.44,264.23,1093.22,307.84z"/>
<path class="st2" d="M1311.04,600.67c17.99,114.65-71.21,231.53-183.88,250.38c-58.79,9.84-115.05,21.92-168.51,50.39
	c-48.31,25.72-102.56,8.79-122.66-33.97c-20.86-44.37,16.32-84.51,59.86-105.85c29.11-14.27,59.18-26.85,89.63-37.89
	c72.93-26.44,118.86-73.3,126.48-155.94c2.09-22.65,14.82-45.78,27.42-65.53c49.41-77.42,78.12-75.23,123.06,7.49
	C1280.94,543.78,1298.97,578.06,1311.04,600.67z"/>
</svg>
