<svg width="226.56mm" height="194.38mm" version="1.1" viewBox="0 0 226.56 194.38" xml:space="preserve" xmlns="http://www.w3.org/2000/svg"><g transform="translate(104.78 -94.453)"><g transform="matrix(.26458 0 0 .26458 -241.5 53.972)"><path class="st0" d="m1179.3 255.15c67.17-1.65 102.58 47.27 134.31 94.68 73.71 110.12 80.83 188.72 9.61 307.96-2.07 3.46-3.37 7.77-6.2 10.34-86.74 78.72-165.63 169.12-281.71 205.44-60.65 18.98-122.61 17.54-184.24 3.09-7.66-1.8-17.41-3.44-21.88-8.86-25.92-31.43-54.78-33.13-88.57-14.23-7.07 3.95-18.84 2.81-27.22.09-85.56-27.77-158.55-70.19-182.2-167.95-3-4.76-3.57-10.07-3.37-15.54 1.08-28.95-8.61-63.89 26.9-77.9 37.08-14.64 76.56-16.55 109.53 11.28 20.34 17.17 40.43 30.38 67.43 29.26 60.98 2.2 92.24 47.25 123.87 90.84 14.65 20.18-3.15 35.02-11.9 50.9-15.97 28.94-11.32 48.07 14.29 59.9 11.9 5.5 26.06 8.17 31.68-5.05 18.85-44.34 52.92-72.31 100.51-95.01-27.82-14.68-48.84-6.5-67.84-2.77-35.92 7.05-61.93-6.55-84.65-32.25-15.02-16.98-27.46-36.03-44.85-51.26-11.75-10.3-18.54-25.41 5.64-31.94 25.15 6.02 35.9 31.45 56.56 43.51 23.18 6.1 44.6 26.84 70.6 8.4 23.61-9.38 47.31-18.26 73.37-14.95 43.37 19.06 54.76-15.37 69.88-43.58 5.51-5.68 11.96-9.55 19.78-10.81 3.8-.32 7.58-.01 11.31.74 39.9 6 73.39-22.68 112.37-21.77 16.48-.27 29.58 10.03 46.48 18.48 5.34-26.6-2.97-48.17-8.92-69.37-14.59-52.02-19.13-103.31 5.81-153.41 8.63-17.34 4.33-30.83-8.25-43.62-14.26-14.5-32.1-23.53-48.58-34.71-13.23-8.97-32.93-16.61-19.55-39.93z"/><path class="st1" d="m850.88 482.3c-19.52-34.2-47.27-61.14-74.56-88.59-38.45-38.68-48.01-74.97-30.41-111.8 19.8-41.45 58.81-62.15 109.35-50.17 32.87 7.79 49.72 5.29 69.02-28.69 41.1-72.35 143.39-64.9 183.38 13.53 31.61 62 35.39 123.53-4.16 183.93-8.38 12.8-15.19 25.71-5.32 40.93-11.14 19.41-9.09 42.36-16.13 62.94-1.05 3.88-2.52 7.53-4.21 11.15-6.1 10.2-11.54 26.89-24.2 22.82-17.16-5.51-12.33-24-11.11-38.56 8.92-54.99-4.07-71.03-58.17-71.27-10.45-.05-20.96-.13-31.25 2.37-3.44 1-6.93 1.8-10.38 2.7-22 15.3-52.27 17.84-63.37 49.91-5.77 16.68-19.11 7.54-28.48-1.2z"/><path class="st2" d="m739.09 644.75c-32.95 3.03-58.95-2.87-82.94-32.88-24.13-30.18-64.9-19.22-96.94-11.01-25.84 6.62-30.21 34.42-27.62 60.61.79 7.99-.17 16.17-.34 24.26-7.72-57.97-36.49-117.91 17.68-169.67 11.68-11.16 8.08-28.65 6.29-42.9-6.46-51.19 25.25-75.99 62.41-97.17 44.75-25.5 85.77-19.81 124.4 14.86 24.46 21.96 41.03 49.39 57.32 77.16 9.06 15.44 20.47 28.38 33.8 39.59 11.48 9.65 16.27 2.35 18.24-9.22 14.76-4.62 21.92 6.07 29.85 15.3 8.4 15.84 19.12 31 15.36 50.69-6.77 16.01-19.34 14.89-32.93 11.87-52.63-11.67-89.88 7.16-113.75 57.45-2.45 5.11-6.52 8.09-10.83 11.06z"/><path class="st3" d="m1179.3 255.15c.51 17.62 11.66 25.71 26.15 31.7 19.78 8.18 36.82 20.69 52.23 35.81 16.75 16.44 23.96 30.81 8.85 55.41-26.18 42.63-21.87 90.18-8.13 136.51 7.67 25.86 13.66 51.88 15.29 78.8.46 7.6 2.79 17.44-5.66 21.92-9.09 4.83-14.53-3.93-19.66-9.39-10.52-11.21-21.86-19.67-38.03-18.13-18.92-9.33-17.95-27.42-19.34-44.76-3.7-46.2-37.79-65.13-79.89-44.76-9.94 4.81-18.67 16.55-31.58 6.3.74-20.19.68-40.64 18.72-54.63 25.92-12.02 48.03-64.22 47.89-115.03-.09-31.65-1.17-63.21 33.16-79.75z"/><path class="st4" d="m873.93 514.86c-7.52-5.5-15.04-10.99-22.56-16.49-.16-5.36-.33-10.71-.49-16.07 7.29-1.18 21.02 5.64 21-.88-.11-47.94 44.32-38.19 66.95-56.11 27.81 18.71 31.1 49.06 34.22 78.56 1.84 17.42 3.36 34.93 5.16 52.36-18.25 33.09-27.05 34.55-49.52 6.65-6-7.45-9.7-16.37-21.46-12.36-23.24-.08-17.5-28.31-33.3-35.66z"/><path class="st5" d="m1098.3 449.92c-10.68 17.33-14.14 36.81-16.27 56.69-2.56 1.92-5.13 1.91-7.69-.01 3.97-23.23-1.31-49.99 23.85-65.16.03 2.83.07 5.66.11 8.48z"/><path class="st6" d="m739.09 644.75c10.7-13.72-9.61-39.52 6.91-43.4 33.51-7.89 46.45-44.78 78.4-50.45 8.81-1.56 19.2 6.4 28.92 9.81 12.53 4.39 24.59 19.02 38.27 2.09 17.11-.37 21.67 13.46 27.82 25.5 1.65 8.44.14 20.04-6.89 20.77-25.77 2.67-26.7 19.56-27.38 39.64-.3 8.85-10.04 10.96-18.32 11.15-3.6-.37-7.07-1.36-10.38-2.85-18.26-9.37-26.75-32.12-48.44-36.88-1.65.21-3.29.39-4.94.57-16.53 2.95-18.42 12.25-5.14 20.31 16.9 10.25 27.83 25.01 37.61 40.98 30.99 50.59 77.11 42.72 123.12 33.19 16.01-3.32 33.69-11.25 41.05 9.24 7.81 21.75-13.11 27.78-26.88 33-33.46 12.69-55.65 34.93-67.24 69.25-9.13 27.05-24.44 35.55-51.59 19.88-25.82-14.9-45.56-30.45-29.13-63.45 8.18-16.43 30.87-37.92 26.64-45.89-14.1-26.58-35.63-50.07-57.84-70.82-14.1-13.16-33.29-22.55-54.57-21.64z"/><path class="st7" d="m662.5 749.94c-46.98 4.45-79.99-9.96-103.33-42.94-14.59-20.62-21.31-48.1-3.41-67.06 18.4-19.49 47.24-15.87 70.78-5.66 23.16 10.05 40.71 29.38 57.78 48.24 13.68 15.11 28.38 31.47 20.3 53.26-8.85 23.85-32.15 11.24-42.12 14.16z"/><path class="st8" d="m1074.3 506.6c2.57-.02 5.13-.01 7.69.01 21.95-10.22 32.48-40.68 67.58-28.73 36.92 12.56 61.76 26.42 52.98 71.35-2.6 13.3.87 26.61 7.81 38.55-30.15 8.59-60.6 16.28-90.32 26.22-12.67 4.24-20.16 4.89-22.21-10.53 1.05-14.71 14.82-24.41 13.93-38.63-3.15 14.29-11.38 27.17-20.74 39.41-5.51 2.76-11.02 5.51-16.53 8.27-35.68 3.86-31.01-22.24-31.77-44.36 7.41-22.28 27.19-37.99 31.83-61.82z"/><path class="st9" d="m1051.4 564.56c-2.67 21.17.29 39.52 23.08 47.95-21.12 60.77-25.49 63.81-72.17 50.21 4.05-11.91 15.85-23.73 1.28-36.1-13.07-11.1-26.51-6.75-40.78-1.5-24.71 9.09-25.94 35.64-39.8 52.66-28.07 31.67-48.06-8.01-72.48-8.54-3.26-8.68.93-13.34 8.41-16.24 5.22-.29 10.51-.09 15.64-.96 27.77-4.67-27.44-16.14 3.09-27.94 28.51-11.02-12.12-21.61-7.93-35.8.34-1.17.78-2.31 1.18-3.52 15.56-12.01 25.14 57 43.77 3.42-2.38-14.01-15.5-25.82-8.2-41.8 7.02-12.28 12.16-32.8 24.57-2.41 6.86 16.79 10.11 48.91 40.33 20.05 1.24-1.21 2.48-2.43 3.71-3.65 1.69-.29 3.39-.56 5.07-.9 11.73 1.05 23.45 2.23 35.1 3.91 6.16 1.22 12.27 1.87 17.91-2.07 6.63-2.27 15.69-17.83 18.22 3.23z"/><path class="st10" d="m923.05 677.78c-5.84-31.3 6.52-51.2 35.07-63.84 19.56-8.66 36.24-13.61 54.97 2.43 10.53 9.01 14.85 18.24 13.49 31.19-1.63 15.53-14.71 12.49-24.24 15.15-28.08-3.99-52.66 11.14-79.29 15.07z"/><path class="st11" d="m1091 604.24c9.45-23.86 18.9-47.72 28.36-71.58-2.21 25.76 6.47 55.28-21.54 70.81-2.26.37-4.53.62-6.82.77z"/><path class="st6" d="m858.98 653.01c-2.8 5.41-5.6 10.83-8.4 16.24-18.83-13.14-34.68-29.31-47.53-48.54l.14-.18c29.92-9.11 34.78 26.39 56.02 32.73z"/><path class="st12" d="m946.63 424.26c23.28-13.26 48.72-9.28 72.27-4.88 38.91 7.28 48.84 36.4 30.57 79.21-7.38 3.5-12.81 11.52-22.38 10.05-2.95-2.22-4.92-5.12-6.11-8.63-.64-5.38.46-10.54 1.58-14.89-7.87 15.86.88 33.01-1.3 49.81-1.69 13.04-1.01 30.93-17.83 30.88-16.92-.05-8.82-18.72-12.16-28.87-2.17-6.6.09-14.2-.5-20.72-7.55 14.53 15.29 37.24-12.01 47.29l.06.05c-15.26-45.34-8.46-95.99-32.19-139.3z"/><path class="st5" d="m946.63 424.26c34.54 40.72 25.71 91.85 32.19 139.31-2.47.02-4.94.18-7.39.48-12.75-45.78-7.39-95.99-32.59-138.74 2.59-.35 5.19-.7 7.79-1.05z"/><path class="st5" d="m1032.6 506.94c.85-12.82 7.47-13.49 16.86-8.34.62 11 1.25 22.01 2.14 37.57 9.58-12.45 16.27-21.14 22.95-29.84.67 22.87-10.9 40.68-23.14 58.22-10.81-10.49-9.76 8.12-16.71 7.1-15.91-21.06-14.68-42.69-2.1-64.71z"/><path class="st13" d="m906.53 546.42c4.7 13.53 18.49 25.21 8.2 41.8-12.29-4.14-14.09-18.21-23.16-25.41-5.87-15.99-11.75-31.97-17.64-47.95 26.28-6.03 12.26 31.22 32.6 31.56z"/><path class="st9" d="m859.21 653.25c-24.56-.44-31.19-32.77-56.02-32.73 1.19-11.43 6.02-18.88 16.62-9.08 14.01 12.95 26.35 27.78 39.4 41.81z"/><path class="st14" d="m1174.5 536.8c-4.72 11.67-20.19 21.97-31.65 32.03 10.28-10.41 22.93-23.21 31.65-32.03z"/><path class="st15" d="m1071.8 581.33c9.68-23.94 15.24-37.86 35.55-48.84-7.15 20.9-13.24 34.57-35.55 48.84z"/><path class="st5" d="m978.76 563.52c20.25-24.23-.35-50.86 2.58-80.03 23.93 23.15 5.48 54.98 24.83 80.4 6.96-37.96 3.62-73.19 20.83-105.88v48.7c5.28 22.49 1.86 43.87-7.89 64.44-13.67-1.34-28.89 5.84-40.35-7.63z"/><path class="st16" d="m1019.1 571.16c-4.15-22.34 6.79-42.77 7.89-64.44 1.89 0 3.76.07 5.63.22.69 21.57 1.39 43.14 2.09 64.71-5.44 7.72-10.44.68-15.61-.49z"/></g></g><style type="text/css">
	.st0{fill:#FAD4D8;}
	.st1{fill:#F5ABC4;}
	.st2{fill:#F5A8BD;}
	.st3{fill:#F5A8BE;}
	.st4{fill:#F5A5B8;}
	.st5{fill:#F6B5CD;}
	.st6{fill:#F5A6B7;}
	.st7{fill:#CA838D;}
	.st8{fill:#976265;}
	.st9{fill:#CC808F;}
	.st10{fill:#C5808A;}
	.st11{fill:#B6747D;}
</style><style type="text/css">
	.st0{fill:#F5A5B8;}
	.st1{fill:#FBD6D6;}
	.st2{fill:#FBD6D5;}
	.st3{fill:#FBD5D6;}
	.st4{fill:#F6B7CE;}
	.st5{fill:#D395A8;}
	.st6{fill:#F6B4CA;}
	.st7{fill:#F6B3C9;}
	.st8{fill:#F7BACB;}
	.st9{fill:#DA7596;}
	.st10{fill:#91605C;}
	.st11{fill:#CB8A9D;}
	.st12{fill:#F7BACD;}
	.st13{fill:#CE91A2;}
	.st14{fill:#CD889D;}
	.st15{fill:#CC8E9F;}
	.st16{fill:#F8C4D6;}
</style></svg>
