<svg width="1623.5" height="393.74" version="1.1" viewBox="0 0 1623.5 393.74" xml:space="preserve" xmlns="http://www.w3.org/2000/svg">
<style type="text/css">
	.st0{fill:#FBD5D7;}
	.st1{fill:#F5A5B8;}
	.st2{fill:#C6788F;}
	.st3{fill:#F7B9CE;}
	.st4{fill:#F7BBCF;}
	.st5{fill:#F7BACC;}
	.st6{fill:#F7B9CF;}
	.st7{fill:#F6BAC9;}
	.st8{fill:#C48493;}
	.st9{fill:#906263;}
	.st10{fill:#C28095;}
</style>













<style type="text/css">
	.st0{fill:#FBD6D6;}
	.st1{fill:#F5A4B8;}
	.st2{fill:#DA7498;}
	.st3{fill:#CD7E95;}
	.st4{fill:#F7B8CB;}
	.st5{fill:#F7B7CB;}
	.st6{fill:#F7BCD1;}
	.st7{fill:#C58D98;}
	.st8{fill:#BD8F96;}
	.st9{fill:#CB8C9E;}
	.st10{fill:#C9889B;}
	.st11{fill:#BA9996;}
</style><style type="text/css">
	.st0{fill:#F5A5B8;}
	.st1{fill:#FBD6D6;}
	.st2{fill:#FBD6D5;}
	.st3{fill:#FBD5D6;}
	.st4{fill:#F6B7CE;}
	.st5{fill:#D395A8;}
	.st6{fill:#F6B4CA;}
	.st7{fill:#F6B3C9;}
	.st8{fill:#F7BACB;}
	.st9{fill:#DA7596;}
	.st10{fill:#91605C;}
	.st11{fill:#CB8A9D;}
	.st12{fill:#F7BACD;}
	.st13{fill:#CE91A2;}
	.st14{fill:#CD889D;}
	.st15{fill:#CC8E9F;}
	.st16{fill:#F8C4D6;}
</style><style type="text/css">
	.st0{fill:#FAD4D8;}
	.st1{fill:#F5ABC4;}
	.st2{fill:#F5A8BD;}
	.st3{fill:#F5A8BE;}
	.st4{fill:#F5A5B8;}
	.st5{fill:#F6B5CD;}
	.st6{fill:#F5A6B7;}
	.st7{fill:#CA838D;}
	.st8{fill:#976265;}
	.st9{fill:#CC808F;}
	.st10{fill:#C5808A;}
	.st11{fill:#B6747D;}
</style><style type="text/css">
	.st0{fill:#FBD8D7;}
	.st1{fill:#F5A6BC;}
	.st2{fill:#FCE2E4;}
</style><style type="text/css">
	.st0{fill:#F5A5B8;}
	.st1{fill:#91A982;}
	.st2{fill:#8D625B;}
	.st3{fill:#DB7498;}
	.st4{fill:#FBD6D9;}
	.st5{fill:#F6B3C9;}
	.st6{fill:#ACC399;}
	.st7{fill:#FAD3D9;}
	.st8{fill:#ACC39D;}
</style><style type="text/css">
	.st0{fill:#EFEFEF;}
</style><style type="text/css">
	.st0{fill:#EFEFEF;}
</style><style type="text/css">
	.st0{fill:#EAC86F;}
</style><style type="text/css">
	.st0{fill:#E8C362;}
	.st1{fill:#E9C568;}
</style><style type="text/css">
	.st0{fill:#EAC86F;}
</style><style type="text/css">
	.st0{fill:#EFEFEF;}
</style><style type="text/css">
	.st0{fill:#EFEFEF;}
</style><style type="text/css">
	.st0{fill:#F5A5B8;}
	.st1{fill:#91A982;}
	.st2{fill:#8D625B;}
	.st3{fill:#DB7498;}
	.st4{fill:#FBD6D9;}
	.st5{fill:#F6B3C9;}
	.st6{fill:#ACC399;}
	.st7{fill:#FAD3D9;}
	.st8{fill:#ACC39D;}
</style><style type="text/css">
	.st0{fill:#96AA84;}
	.st1{fill:#AFC69E;}
	.st2{fill:#7D916C;}
	.st3{fill:#7D926A;}
</style><style type="text/css">
	.st0{fill:#CDCDCD;}
</style><style type="text/css">
	.st0{fill:#DFDFDF;}
</style><style type="text/css">
	.st0{fill:#FBD8D7;}
	.st1{fill:#F5A6BC;}
	.st2{fill:#FCE2E4;}
</style><style type="text/css">
	.st0{fill:#FAD4D8;}
	.st1{fill:#F5ABC4;}
	.st2{fill:#F5A8BD;}
	.st3{fill:#F5A8BE;}
	.st4{fill:#F5A5B8;}
	.st5{fill:#F6B5CD;}
	.st6{fill:#F5A6B7;}
	.st7{fill:#CA838D;}
	.st8{fill:#976265;}
	.st9{fill:#CC808F;}
	.st10{fill:#C5808A;}
	.st11{fill:#B6747D;}
</style><style type="text/css">
	.st0{fill:#F5A5B8;}
	.st1{fill:#FBD6D6;}
	.st2{fill:#FBD6D5;}
	.st3{fill:#FBD5D6;}
	.st4{fill:#F6B7CE;}
	.st5{fill:#D395A8;}
	.st6{fill:#F6B4CA;}
	.st7{fill:#F6B3C9;}
	.st8{fill:#F7BACB;}
	.st9{fill:#DA7596;}
	.st10{fill:#91605C;}
	.st11{fill:#CB8A9D;}
	.st12{fill:#F7BACD;}
	.st13{fill:#CE91A2;}
	.st14{fill:#CD889D;}
	.st15{fill:#CC8E9F;}
	.st16{fill:#F8C4D6;}
</style><style type="text/css">
	.st0{fill:#FBD6D6;}
	.st1{fill:#F5A4B8;}
	.st2{fill:#DA7498;}
	.st3{fill:#CD7E95;}
	.st4{fill:#F7B8CB;}
	.st5{fill:#F7B7CB;}
	.st6{fill:#F7BCD1;}
	.st7{fill:#C58D98;}
	.st8{fill:#BD8F96;}
	.st9{fill:#CB8C9E;}
	.st10{fill:#C9889B;}
	.st11{fill:#BA9996;}
</style><style type="text/css">
	.st0{fill:#FBD5D7;}
	.st1{fill:#F5A5B8;}
	.st2{fill:#C6788F;}
	.st3{fill:#F7B9CE;}
	.st4{fill:#F7BBCF;}
	.st5{fill:#F7BACC;}
	.st6{fill:#F7B9CF;}
	.st7{fill:#F6BAC9;}
	.st8{fill:#C48493;}
	.st9{fill:#906263;}
	.st10{fill:#C28095;}
</style><style type="text/css">
	.st0{fill:#E8C362;}
	.st1{fill:#E9C568;}
</style><g transform="translate(-99.508 -373.98)">
	<path class="st0" d="m1380.9 373.98c41.36 3.5 71.51 47.06 61.14 88.33-9.46 37.66-35.69 58.1-74.69 58.17-78.33.13-156.66.19-234.99.38-17.98.05-28.62 11.45-36.13 25.77-9.08 17.31-6.44 34.3 5.39 49.51 9.36 12.02 21.4 17.52 37.49 17.48 186.4-.44 372.8-.26 559.2-.44 9.13-.01 17.45 1.06 24.74 6.83v14.45c-7.24 4.66-15.04 6.56-23.77 6.55-186.76-.13-373.51-.06-560.27-.12-37.78-.01-66.36-22.49-73.07-59.96-6.02-33.66 6.9-66.04 43.39-82.55 10.35-4.69 21.62-5.72 32.89-5.71 76.31.04 152.64-.78 228.91.82 23.17.49 46.42-24.69 46.17-47.33-.25-22.48-23.54-46.52-45.8-46.44-238.57.86-477.14.56-715.71.57-5.22 0-10.53.52-15.64-.27-6.97-1.07-13.34-3.63-13.92-12.31-.56-8.4 3.63-12.7 11.74-13.63 137.27.06 274.54.17 411.81.16 110.37-.02 220.74-.17 331.12-.26z"/>
	<path class="st1" d="m1683.6 759.96c-.8-5.16-5.28-6.6-10.06-6.71-2.81-.06-5.62-.03-8.44-.04-53.03-.05-106.05-.11-159.08-.14-274.38-.19-548.77.15-823.15-1.76-28.21-.2-54.09-28.52-53.68-54.49.46-28.97 29.71-54.36 53.23-53.91 73.89 1.41 147.83.13 221.75.73 34.74.28 67.83-33.47 68.94-70.56 1.05-35.21-33.73-68.43-69.04-68.64-146.22-.87-292.45.47-438.67-1.32-116.1-1.42-232.22-.75-348.33-1.01-2.81-.01-5.63-.09-8.44.06-4.79.27-9.35 1.86-9.07 7.39.24 4.67 4.51 6.18 8.84 6.42 2.4.13 4.82.06 7.23.08 181.98.98 363.96-.91 545.94 1.73 80.74 1.17 161.52 1.27 242.26.19 28.14-.38 54.34 27.68 54.97 56.18.62 27.98-26.8 55.29-54.63 55.26-31.69-.04-63.38-.31-95.08-1.08-41.7-1.01-83.47.78-125.21 1.05-46.56.3-79.53 47.8-62.94 91.02 10.62 27.66 36.54 45.63 65.92 45.66 151.47.16 302.94.31 454.41.48 4.01 0 8.04-.02 12.04.33.65.06 1.23.19 1.72.39h22.43c2.47-2.47 6.98-.41 9.95-.42 64.91-.2 129.83-.11 194.74.01 37.26.07 74.52.3 111.78.46 60.34-.17 120.69-1.21 181.03.4 4.23-1.13 9.59-1.63 8.64-7.76z"/>
</g></svg>
