<?xml version="1.0" encoding="utf-8"?>
<!-- Generator: Adobe Illustrator 26.0.0, SVG Export Plug-In . SVG Version: 6.00 Build 0)  -->
<svg version="1.1" id="Layer_1" xmlns="http://www.w3.org/2000/svg" xmlns:xlink="http://www.w3.org/1999/xlink" x="0px" y="0px"
	 viewBox="0 0 1920 1080" style="enable-background:new 0 0 1920 1080;" xml:space="preserve">
<style type="text/css">
	.st0{fill:#F5A5B8;}
	.st1{fill:#91A982;}
	.st2{fill:#8D625B;}
	.st3{fill:#DB7498;}
	.st4{fill:#FBD6D9;}
	.st5{fill:#F6B3C9;}
	.st6{fill:#ACC399;}
	.st7{fill:#FAD3D9;}
	.st8{fill:#ACC39D;}
</style>
<path class="st0" d="M550.99,469.36c-30.72-35.07-29.48-79.71-35.22-122.26c34.68-33.38,79.79-63.9,92.57-109
	c17.32-61.12,76.23-82.82,99.78-134.5c31.43-41.84,82.39-27.19,130.63,2.44c69.9,42.94,126.7,102.36,188.26,155.8
	c0.21,1.87,0.41,3.74,0.62,5.61c-1.51,8.64-5.71,16.56-15.03,13.95c-35.57-9.98-34.11,13.14-28.92,35.05
	c11.11,46.93-0.51,87.95-26.25,126.49c-14.47,8.36-30,10.74-46.3,8.7c-25.87-8.26-41.18-31.75-63.04-46.09
	c-13.48-8.85-16.68,0.27-26.38,5.45c-16.72,8.95-7.63,16.22-3.48,24.38c13.32,26.18,33.19,47.54,50.72,70.66
	c26.44,34.86,23.57,44.17-17.18,56.67c-7.74,2.38-11.08,5.27-11.39,12.85c-0.16,3.96,0.05,8.39-3.21,11.07
	c-20.68,17.01-50.9-6.33-73.04,24.91c-18.49,26.09-46.33,1.5-67-14.99c-6.81-5.43-13.49-13.36-24.15-9.08
	c-39.36-26.48-77.07-54.81-103.55-95.77c13-9.04,13.01-9.07,30.31,0.89c9.79,5.64,19.67,17.9,31.08,7.53
	c10.1-9.18,4.5-22.74,0.03-33.57c-9.6-23.26-19.53-46.25-25.49-70.94c-2.99-12.37-11.07-21.93-25.34-19.67
	c-16.22,2.57-18.24,15.53-20.1,29.65C557.1,426.86,578.97,451.87,550.99,469.36z"/>
<path class="st1" d="M905.77,444.53c17.71-2.75,35.42-5.5,53.14-8.25c8.95-10.18,20.93-9.92,32.39-8.32
	c35.16,4.89,42.14-15.92,41.24-45.07c-1.21-39.23-16.79-77.63-6.5-117.51c0,0,0.98-3.53,0.97-3.53
	c76.86,55.34,119.78,131.02,133.33,225.72c3.94,27.57-8.29,52.45-6.3,79.08c-49.78,43.29-86.23,98.3-126.71,149.77
	c-73.66,20.62-146.33,25.02-216.35-13.8c4.89-22.86,21.62-11.93,33.4-11c23.42,1.85,46.73,5.88,69.96-0.41
	c20.31-5.5,21.22-16.81,8.1-31.58c-20.79-23.4-57.88-24.56-89.77-3.85c-15.98,10.38-27.02,29.94-49.52,28.59
	c-17.59-9.54-33.03-21.24-40-41.44c46.91-44.36,103.05-65.7,166.23-69.46c34.41,12.49,52.13,52.07,89.01,57.46
	c-24.91-62.72-45.48-130.29-109.5-168.26C889.06,451.32,892.01,442.67,905.77,444.53z"/>
<path class="st2" d="M1027.33,716.41c27.04-63.29,63.84-117.99,126.71-149.77c29.27,38.57,56.88,77.59,39.95,130.9
	c-5.23,16.47,8.98,23.77,16.97,33.22c39.5,46.74,74.68,96.12,96.8,154.2c6.59,17.29,9.61,33.38-5.81,47.59
	c-12.43,11.45-26.8,17.23-43.17,12.22c-15.22-4.66-17.53-18.82-18.13-32.38c-2.66-59.99-24.92-111.22-65.49-154.36
	c-7.78-8.27-13.56-18.43-29.16-14.24C1102.27,755.55,1063.74,739.81,1027.33,716.41z"/>
<path class="st3" d="M905.77,444.53c-7.04,4.37-12.41,9.99-13.55,18.78c23.44,36.1,43.61,72.96,26.64,118.51
	c-66.07-2.06-117.74,38.92-175.71,61.08c-23.39-18.47-46.79-36.94-70.18-55.42c15.4-15.82,21.63,6.16,32.61,8.09
	c20.67,3.63,42.99,42.56,61.56-8.78c7.35-20.32,40.58-1.86,65.86-2.09c-18.41-32.68-13.14-46.72,24.39-31.05
	c7.4,3.09,16.19,4.06,20.6-4.78c4.12-8.25-1.74-15.07-6.26-21.6c-21.74-31.37-51.65-56.87-65.98-93.42
	c-3.85-9.83-29.7-29.19,9.82-27.8c13.26,0.47-7.72-15.33,1.14-26.12C853.29,390.7,881.65,414.4,905.77,444.53z"/>
<path class="st4" d="M708.11,103.6c8.52,32.78-13.99,49.81-35.99,61.04c-23.32,11.91-41.07,22-35.86,52.62
	c1.2,7.02-1.49,19.74-6.07,21.97c-36.36,17.69-38.45,65.74-74.32,84.45c-13.43,7-24.29,19.76-40.12,23.41
	c6.47-68.92,32.83-124.51,87.73-170.18C636.87,149.14,667.94,120.37,708.11,103.6z"/>
<path class="st5" d="M550.99,469.36c10.62-21.23-1.02-41.52-3.17-62.03c-2.62-25.01,3.77-42.67,29.88-46.53
	c23.89-3.54,37.73,9.76,39.73,33.08c2.36,27.62,18.72,49.22,26.76,74.15c4.97,15.41,14.29,36.05-2.93,47.98
	c-17.86,12.36-33.88,0.38-47.51-13.96c-6.14-6.46-11.13-19.57-24.31-10.33C559.87,487.18,555.27,478.4,550.99,469.36z"/>
<path class="st6" d="M783.14,684.35c26.2-20.58,45.42-52.23,83.13-54.57c7.75-0.48,15.93-2.61,23.2-0.88
	c27.99,6.65,57.65,20.68,56.82,51.23c-0.89,32.84-36.4,21.28-57.14,26.25c-25.79,6.17-51.46-13.75-78.18-3.77
	C799.2,700.48,790,694.27,783.14,684.35z"/>
<path class="st3" d="M1026.03,265.37c7.34,44.39,17.61,88.2,18.8,133.7c1.03,39.4-16.73,49.11-51.03,41.07
	c-11.32-2.66-23.24-2.65-34.89-3.86c9.12-45.3,28.85-89.44,11.33-137.43c-4.56-12.49-1.16-28.23,8.42-36.8
	c11.88-10.63,20.44,4.89,29.01,10.65C1019.03,280.32,1020.06,267.84,1026.03,265.37z"/>
<path class="st7" d="M796.07,242.68c56.98,17.59,91.03,60.22,116.62,111.4c3.5,7,5.75,16.08-1.88,21.71
	c-9.29,6.86-16.69,0.3-23.98-5.91c-27.39-23.34-42.75-56.03-63.51-84.5C813.39,271.78,805.09,256.95,796.07,242.68z"/>
<path class="st7" d="M679.73,357.96c38.32,25.67,69.88,58.18,99.08,93.16c5.63,6.74,13.88,15.33,6.64,24.57
	c-9.05,11.54-19.37,3.57-27.23-2.89C721.24,442.35,699.1,401.24,679.73,357.96z"/>
<path class="st8" d="M918.86,581.82c-8.88-39.5-17.77-79.01-26.64-118.51c57.77,11.43,75.43,61.77,93.36,107.35
	c10.17,25.85,21.49,50.18,40.33,78.13C976.33,641.63,942.05,621.14,918.86,581.82z"/>
</svg>
