<?xml version="1.0" encoding="utf-8"?>
<!-- Generator: Adobe Illustrator 26.0.0, SVG Export Plug-In . SVG Version: 6.00 Build 0)  -->
<svg version="1.1" id="Layer_1" xmlns="http://www.w3.org/2000/svg" xmlns:xlink="http://www.w3.org/1999/xlink" x="0px" y="0px"
	 viewBox="0 0 1920 1080" style="enable-background:new 0 0 1920 1080;" xml:space="preserve">
<style type="text/css">
	.st0{fill:#CDCDCD;}
</style>
<g>
	<path class="st0" d="M1224.68,286c2.12,0,4.23,0,6.35,0c13.57,10.06,24.46,22.03,29.2,38.81c1.75,6.19,5.92,11.24,10.8,15.38
		c21.39,18.18,34.53,42.32,48.77,65.81c15.84,26.13,28.39,54.26,47.61,78.35c2.2,2.76,3.96,5.88,5.1,9.21
		c10.43,30.42,28.42,57.17,41.84,86.13c1.54,3.33,3.79,5.95,6.63,8.04c15.67,11.57,24.73,27.74,31.18,45.46
		c10.03,27.53,24.95,51.89,45.49,72.83c3.94,4.02,7.36,8.53,10.76,13.01c2.3,3.02,5.07,6.22,1.89,10.35
		c-381.53,0-763.06,0.01-1144.6-0.22c-2.65,0-9.13,4.36-8.46-4.01c0.59-22.24,9.89-42.05,17.51-62.32
		c1.74-4.63,3.78-9.09,6.66-13.14c7.59-10.67,13.17-22.12,17.23-34.74c4.4-13.68,11.77-26.28,22.22-36.66
		c5.3-5.26,9.11-11.61,13.04-17.86c4.7-7.46,9.62-14.79,15.95-20.96c6.42-6.27,11.47-13.02,13.4-22.11
		c1.49-7.04,5.98-12.76,11.54-17.3c17.28-14.12,31.33-31.32,46.04-47.88c19.96-22.47,43.43-41.09,66.17-60.5
		c8.91-7.6,20.12-11.49,30.93-15.79c16.44-6.53,32.47-13.98,45.61-26.07c17.42-16.02,39.82-20.37,61.31-26.7
		c9.42-2.78,17.33,0.96,22.47,9.61c1.26,2.12,2.66,4.18,3.67,6.41c6.99,15.48,17.35,23.16,35.78,20.32
		c14.35-2.22,27.99,3.49,38.75,13.54c8.02,7.49,16.54,9.65,27.05,7.1c14.05-3.41,27.25,1.63,40.31,5.62
		c19.85,6.07,39.34,13.3,59.19,19.41c13.02,4.01,23.69,12.28,35.56,18.36c2.19,1.12,4.14,2.66,6.38,3.72
		c16.34,7.74,15.53,7,27.77-5.94c17.37-18.37,35.35-36.36,58.32-48.15c10.96-5.63,22.14-10.83,32.8-17.04
		c6.97-4.06,14.68-5.06,22.51-3.84c5.53,0.86,9.42-0.9,12.93-5.01c4.12-4.81,8.64-9.27,13.56-13.29c5.09-4.16,10.7-6.92,17.48-5.88
		c9.33,1.42,15.43-3.17,20.24-10.41c3.9-5.87,7.44-11.95,10.85-18.1C1213.84,293.55,1218.19,288.68,1224.68,286z"/>
</g>
</svg>
