<svg width="238.69mm" height="208.32mm" version="1.1" viewBox="0 0 238.69 208.32" xml:space="preserve" xmlns="http://www.w3.org/2000/svg"><g transform="translate(84.439 -72.094)"><g transform="matrix(.26458 0 0 .26458 -215.63 29.232)"><path class="st0" d="m505.22 779.37c-21.35-21.29.27-42.69 1.71-63.32 3.55-51.01 19.9-100.14 24.53-151.78 4.27-47.6 42.28-73.23 83.36-89.38 23.26-9.15 31.15-21.96 35.53-48.08 9.81-58.61 27.96-114.39 94.57-135.07 16.44-5.1 32.01-20.53 43.03-35.1 62.46-82.66 145.26-92.3 235.93-68.15 28.84 7.68 53.08 8.54 76.27-10.66 24.04-19.91 54.67-18.11 78.12-10.48 71.96 23.42 147.89 42.85 194.73 112.58-39.12 62.01-83.54 119.66-134.77 171.83-18.28 18.62-52.01 14.87-61.68 48.2-2.81 9.69-21.1 2.82-30.37-6.1-11.39-12.15-9.94-33.46-28.06-40.73-32.14 10.43-30 38.89-33.04 64.63-.99 4.87-3.05 9.19-5.97 13.11-4.31 2.37-8.89 3.12-13.71 2.34-34.59-11.02-25.24-59.2-58.22-71.4-10.27.89-19.95 4.9-30.15 5.89-6.1.75-12.25 1.27-18.22 2.88-20 11.34-18.29 49.6-51.72 43.79-1.71 24.78 14.15 43.91 19.88 66.18 4.05 15.73 7.09 31.88-9.62 41.02-17.9 9.79-27.59-5.59-37.46-16.98-10.04-11.58-16.49-25.93-29.98-41.25-4.73 16.64 5.39 31.18-.45 44.25-8.28 19.51-22.94 27.64-43.41 25.38-27.44-11.42-35.21-41.36-54.52-60.42-5.65-7.48-9.62-16.1-14.17-22.53 3.58 7.06 8.64 14.98 14.17 22.64 17.8 28.46 44.37 50.72 56.28 83.32-2.26 13.88-10.55 22.33-23.24 26.8-27.15 6.86-39.07-17.96-55.89-25.84 5.34 7.51 19.3 13.92 17.72 29.96-1.38 22.62-8.72 43.42-18.53 63.36-7.89 16.05-20.41 32.03-38.07 28.53-61.85-12.23-123.12 11.67-184.58.58z"/><path class="st1" d="m505.22 779.37c48.2-15.47 99.2-31.19 147.48-17.77 49.34 13.71 64.2-6.48 73.81-47.28 3.13-13.28 9.33-25.8 14.12-38.67 13.32-9.65 27.07 15.18 40.31-.53 10.14-4.1 17.19-11.41 21.48-21.56 9.96-10.31-9.85-20.04-.57-30.33 18.37 1.48 33.38-3.88 42.29-21.63 1.66-.23 4.34-1.24 4.85-.56 38.65 51.08 72.55 24.95 106.12-6.75 71.98-11.44 99.16-3.51 137.19 40.02 8.51-8.16 4.59-19.49 7.09-29.09.33-4.7 1.21-9.32 2.33-13.89 2.48-8.87 5.86-17.44 8.87-26.14 5.28-15.01 8.4-30.91 17.06-44.59 7.76-10.98 8.96-26.57 22.4-33.59 12.55 7.16 25.61 15.14 27.89-9.19 1.42-15.11 1.94-30.31 3.72-59.48 29.01 64.89 45.99 23.76 64.73 6.27 46.95-43.84 71.37-108.25 126.57-144.66 38.04 65.9 22.38 138.29 18.77 207.16-5.77 110.13-55.05 203.29-130.5 281.93-42.06 9.94-72 59.99-123.47 38.8-13.32 36.05-51.96 39.69-76.86 61.28-26.44 22.93-57.3 45.18-96.54 24.3-7.55-4.02-17.98-6.74-24.05-.1-38.68 42.34-89.29 42.56-140.03 43-114.09-21.56-221.19-56.76-295.06-156.95z"/><path class="st2" d="m800.3 936.3c9.66-19.47 23.97-17.69 42.75-14.2 35.57 6.61 64.99-10.11 80.51-41.74 10.36-21.12 20.59-13.75 31.42-7.08 47.83 29.45 80.2 7.84 107.63-32.13 1.94-2.82 4.49-8.71 5.1-8.48 56.35 20.61 46.52-46.78 77.95-61.24 13.92 57.5 44.04 15.88 65.57 9.71 16.58-4.75 26.05-36.35 50.01-12.13-121.57 132.42-267.21 200.89-448.18 174.89-4.52-.65-8.52-4.98-12.76-7.6z"/><path class="st3" d="m1107.8 591.78c13.4 27.82.61 51.26-12.87 87.21-22.06-89.17-84.65-75.07-140.36-76.71-.68-2.29-1.37-4.58-2.06-6.87 22.97-25.51 25.94-51.26 6.39-81.63-10.25-15.93-22.48-36.02-3.91-56.02 6.33-.06 12.67-.12 19-.18 18.76 16.02 19.62 39.07 23.3 60.78-3.92 6.14 10.23-1.39 3.43-1.65-4.26-.16-4.37-1.58-.98-4.95 39.93-39.72 23.12 25.17 40.63 19.59-5.02-28.2-44.75-45.74-36.73-84.68 15.56-20.45 19.64-3.12 25.86 8.04 13.59 24.41 18.53 53.39 38.05 74.65 18.69 17.26 25.93 42.21 40.25 62.42z"/><path class="st3" d="m954.6 602.28c-2.11 2.67-3.75 6.97-6.4 7.76-28.33 8.4-29.7 54.46-57.95 52.43-28.47-2.05-19.58-48.4-46.11-60.87-5.34-10.5-10.1-21.37-16.18-31.41-9.59-15.87 4.39-20.69 12.03-28.38 14.87-14.96 13.52 6.21 20.02 9.83 2.66 1.48 3.64 5.78 6.06 8.04 17.96 16.78 22.42 65.07 47.6 50.77 23.34-13.25-13.53-45.48-16.81-71.36-1.24-9.82-8.73-18.73-10.63-28.6s-12.03-26.61 7.57-27.31c11.27-.4 7.53 16.42 10.44 25.54 26.05 26.03 39.41 59.16 50.4 93.62z"/><path class="st4" d="m954.65 602.34c-30.25-23.68-40.53-58.54-50.41-93.62 20.93-1.45 28.72-14.24 30.57-34.19 1-10.73 1.26-26.61 20.2-16.77-2.45 29.27 14.26 52.04 27.28 74.93 15.05 26.46 28.24 47.52-16.47 53.74-4.35.6-7.47 10.38-11.17 15.91z"/><path class="st5" d="m1139.4 529.04c-16.96 8.86-5.68 32.24-20.79 42.05-27.6-5.7-23.85-37.55-41.42-51.62-10.05-50.35 6.89-78.17 50.86-83.48 5.78 30.77 23.05 60.07 11.35 93.05z"/><path class="st6" d="m1003.7 446.66c20.17 38.74 40.34 77.49 60.5 116.23-31.56-9.41-28.66-43.94-52.29-59.18-14.96 16.95 8.87 27.39 3.72 52.5-26.82-32.98-41.32-62.15-41.57-98.64 9.87-3.63 19.75-7.27 29.64-10.91z"/><path class="st7" d="m801.87 623.23c4.99 6.78 9.96 13.58 14.96 20.35 3.65 4.95 13.12 10.14 7.45 15.8-7.28 7.27-14.34-3.88-21.84-5.81-19.06-26.12-43.16-48.82-53.02-81.19l2.61-2.39c16.61 17.75 33.22 35.49 49.84 53.24z"/><path class="st8" d="m780.95 675.12c-13.19 20.6-26.84 3.58-40.32.53-16.53-13.28-33.06-26.56-49.59-39.83 36.72.41 56.37 34.74 89.91 39.3z"/><path class="st9" d="m1139.4 529.04c5.5-32.19-24.01-59.95-11.35-93.05 18.27 12.11 20.04 31.59 21.94 51.01-2.93 14.16 2.95 30.65-10.59 42.04z"/><path class="st5" d="m1107.8 591.78c-36.99-5.01-32.13-38.08-40.26-62.43 3.67.03 7.33.06 11 .08 23.74 14.16 35.93 33.84 28.87 62.73z"/><path class="st10" d="m1107.4 592.17c-4.22-23.5-13.22-44.71-28.88-62.73-.83-3.27-1.27-6.59-1.32-9.97 37.53-2.57 23.27 38.03 41.41 51.62-.83 8.63-2.41 16.85-11.21 21.08z"/><path class="st11" d="m749.41 572.38c-20.72-13.23-24.64-37.27-34.59-57.69 21.69 11.87 30.37 32.92 37.19 55.32.02-.02-2.6 2.37-2.6 2.37z"/></g></g><style type="text/css">
	.st0{fill:#FAD4D8;}
	.st1{fill:#F5ABC4;}
	.st2{fill:#F5A8BD;}
	.st3{fill:#F5A8BE;}
	.st4{fill:#F5A5B8;}
	.st5{fill:#F6B5CD;}
	.st6{fill:#F5A6B7;}
	.st7{fill:#CA838D;}
	.st8{fill:#976265;}
	.st9{fill:#CC808F;}
	.st10{fill:#C5808A;}
	.st11{fill:#B6747D;}
</style><style type="text/css">
	.st0{fill:#F5A5B8;}
	.st1{fill:#FBD6D6;}
	.st2{fill:#FBD6D5;}
	.st3{fill:#FBD5D6;}
	.st4{fill:#F6B7CE;}
	.st5{fill:#D395A8;}
	.st6{fill:#F6B4CA;}
	.st7{fill:#F6B3C9;}
	.st8{fill:#F7BACB;}
	.st9{fill:#DA7596;}
	.st10{fill:#91605C;}
	.st11{fill:#CB8A9D;}
	.st12{fill:#F7BACD;}
	.st13{fill:#CE91A2;}
	.st14{fill:#CD889D;}
	.st15{fill:#CC8E9F;}
	.st16{fill:#F8C4D6;}
</style><style type="text/css">
	.st0{fill:#FBD6D6;}
	.st1{fill:#F5A4B8;}
	.st2{fill:#DA7498;}
	.st3{fill:#CD7E95;}
	.st4{fill:#F7B8CB;}
	.st5{fill:#F7B7CB;}
	.st6{fill:#F7BCD1;}
	.st7{fill:#C58D98;}
	.st8{fill:#BD8F96;}
	.st9{fill:#CB8C9E;}
	.st10{fill:#C9889B;}
	.st11{fill:#BA9996;}
</style></svg>
