<svg width="186.88mm" height="188.06mm" version="1.1" viewBox="0 0 186.88 188.06" xml:space="preserve" xmlns="http://www.w3.org/2000/svg"><g transform="translate(60.722 -78.38)"><g transform="matrix(.26458 0 0 .26458 -223.56 36.575)"><path class="st0" d="m793.27 319.24c3.27 1.51 6.41 3.57 9.83 4.42 11.08 2.75 21.26 19.6 30.02 12.43 10.12-8.27 4.51-25.94 3.35-39.16-1.64-18.69-10.75-37.1.38-55.65 6.82 5.13 6.6 12.43 5.86 19.89 1.32-3.44-.2 1.82.54-.02 21.55-53.9 60.52-61.71 106.89-38.52 19.9 9.95 34.25 12.1 54.36 1.3 32.19-17.28 67.98-5.84 97.17 27.02 2.38-5.46 1.71-12.27 7.32-15.3 12.79 38.72-.2 75.6-8.19 115.22 17.01-7.78 29.44-21.66 46.62-25.77 5.89 4.01 12.37 1.03 18.51 1.36 52.33 2.83 84.66 43.31 72.67 96.01-5 21.96-.14 36.14 13.8 51.89 34.61 39.09 28.79 83.5-13.54 115.98-17.06 12.76-38.2-.77-58.47 9.85 13.3 15.05 30.42 25.88 36.82 45-3.33 7.52 1.65 14.17 2.26 21.29 3.72 43.39-18.01 76.64-60.22 83.77-26.4 4.46-43.25 14.13-55.14 40-15.39 33.5-59.25 42.83-104.92 27.07-20.33-10.72-15.68-36.02-29.28-52.38-14.54 12.9-13.8 35.39-29.34 46.67-6.63.12-11.8 4.08-17.5 6.75-44.13 20.73-87.23 4.74-106.74-41.25-7.19-16.94-16.83-26.37-34.96-29.71-51.16-9.43-77.17-52.05-63.8-102.36 11.76-14.5 23.52-28.99 36.27-44.72-16.77-9.66-36.9-5.25-52.47-15.56-11.5-10.33-23.28-20.29-31.15-34.18-16.17-28.53-12.28-62.24 13.48-88.38 17.1-17.36 25.65-34.09 22.84-60.64-5.51-52.09 29.67-83.37 86.73-82.32z"/><path class="st1" d="m793.27 319.24c-17.04 9.16-38.06 4.42-54.2 19.45-21.32 19.85-31.81 43.46-24.42 70.73 5.92 21.83-1.15 34.55-15.52 47.89-15.16 14.08-30.18 27.88-30.74 52.34-.5 21.95 6.91 38.62 20.65 54.36 5.08 5.81 17.55 8.23 12.33 20.74-77.42-15.54-107.37-80.03-69.7-148.89 7.34-13.41 13.78-27.51 15.22-43.55 4.66-51.93 40.67-85.03 91.55-84.48 18.93.21 37.19 4.44 54.83 11.41z"/><path class="st2" d="m717.57 645.03c-.2 27.28 3.03 52.7 24.05 73.55 12.16 12.06 23.09 21.72 41.39 21.53 19.54-.2 33.09 7.85 38.88 30.24 10.84 41.9 54.66 60.33 94.53 42.39 7.7-3.46 15.63-11.49 24.15-1.15-38.45 54.66-73.64 72.12-122.81 43.79-41.13-23.7-82.45-52.62-113.25-90.74-25.25-31.25-17.58-76.73 13.06-119.61z"/><path class="st3" d="m1238.9 590.32c13.06-18.39 27.67-35.39 27.55-60.76-.1-20.58-4.66-37.54-20.21-51.37-16.88-15.02-25.43-28.6-15.29-56.11 12.55-34.04-10.57-89.31-56.38-87.04-9.52.47-19.32-3.16-27.13-9.97 18.81-6.22 37.23-12.72 57.76-12.4 45.87.72 80.65 29.44 88.75 75.63 4.27 24.34 11.86 47.22 20.73 70.46 17.78 46.62 5.89 113.12-75.78 131.56z"/><path class="st4" d="m999.2 817.31c13.77-8.36 27.39 2.17 41.51.16 29.27-4.16 55.07-10.95 63.46-45.38 4.16-17.08 16.38-26.9 33.73-26.55 46.41.95 81.62-32.63 73.95-80.1-1.13-7.01-1.59-14.96 5.37-20.28 32.14 38.59 38.72 79.78 12.22 124.38-10.03 16.88-118.2 89.04-137.3 91.69-40.23 5.61-70.06-11.46-92.94-43.92z"/><path class="st2" d="m1109 235.64v32.26c-22.94-27.18-45.6-47.21-79.55-43.11-6.18.75-14.13-.06-18.14 3.51-23.72 21.09-42.8 12.96-68.74-.59-40.77-21.29-67.2-10.92-89.32 25.66-4.17 6.89-7.64 14.23-16.38 21.18v-33.28c.18-1.76.37-3.52.57-5.27 37.27-41.81 81.5-62.24 137.96-49.01 21.66 5.07 43.06 2.43 61.8-12.14 4.82-3.75 10.39-7.55 17.35-5.7 33.36 9.22 47.35 34.92 54.45 66.49z"/><path class="st5" d="m1054.5 169.16c-22.75 27.89-52.29 33.49-85.13 25.8-41.71-9.77-78.25-1.78-108.32 30.45-6.58 7.05-13.85 11.52-23.66 10.6 3.55-49.67 51.16-85.21 107.28-76.74 22.64 3.41 43.96 4.97 66.43 0 15-3.32 30.41-.14 43.4 9.89z"/><path class="st6" d="m1121.3 576.29c-9.78 4.38-15.35-.32-21.94-3.49-22.31-10.74-44.58 2.7-44.92 27.2-.27 19.3 3.49 34.89-26.94 21.32-13-5.8-36.39 8-55.98 9.7-8.5.74-16.84 1.6-23.23-2.62-18.6-12.3-35.27-22.99-58.45-7.04-8.36 5.76-15.27-6.47-14.21-17.06.72-7.26 4.58-16.27-3.62-19.76-22.75-9.68-18.13-33.41-26.65-50.28-3.44-6.82-5.15-15.91-1.29-21.34 13.38-18.78 9.61-33.04-6.48-47.7-8.15-7.43-8.61-16.16 5.66-19.17 22.78-4.81 23.83-28.43 34.78-43.44 1.22-1.67.03-9.75 2.01-8.29 20.55 15.19 31.33-17.48 51.41-9.77 12.59 4.83 19.87-7.98 26.9-18.24 8.05-11.74 16.02-23.73 28.17-.4 10.51 20.19 38.39 15.09 54.71 29.99 6.39 5.84 18.26 9.28 19.78 17.35 4.82 25.69 17.24 40.42 43.65 42.73 6.33.55 12.5 8.61 6.19 14.3-22.79 20.53-10.39 50.48-20.73 74.1-4.56 10.41 1.5 14.99 10.33 18.16 7.4 2.68 15.79 4.06 20.85 13.75z"/><path class="st7" d="m902.24 512.56c9.07-10.66 22.74-1.88 34.15-8.79-20.01-13.42-45.35-5.99-69.69-19.87 23.48-6.65 39.93 8.58 60.46 5.13-11.22-15.36-26.97-15.8-40.61-20.48-5.43-1.87-10.57-4.77-6.49-11.65 2.85-4.81 7.47-3.69 11.8-1.15 16.05 9.4 32.16 18.69 49.66 28.85-.65-13.7-14.7-20.87-10.44-33.86 9.49-1.06 10.96 10.58 19.18 12.94 1.48-13.8-3.08-24.81-8.69-35.08-3.76-6.87-9.18-14.49 1.14-17.49 11.22-3.26 7.7 8.85 10.2 14.67 6.72 15.61-1.3 35.85 14.71 48.5 1.51 5.02-1.25 8.54-3.87 12.29-14.39 20.56-13.97 21.63 10.17 31.83 3.5 1.48 5.15 4.82 5.64 8.65-.71 1.06-1.41 2.11-2.12 3.17-6.93 6.75-3.2 15.66-4.65 23.52-1.21 6.54 2.98 18.3-12.65 10.56-4.14-2.05-1.68 10.7-.18 16.7 1.67 6.69-1.31 11.91-7.24 12.12-7.36.26-7.71-6.65-6.58-12.19 3.09-15.14 6.7-30.16 10.76-48.15-20.94 13.63-44.06 18.65-55.56 41.17-2.33 4.56-7.84 4.54-11.27-.03-4.82-6.42-1.02-9.6 4.85-12.03 18.41-7.6 27.72-25.32 47.3-42.35-18.7 4.13-31.98 7.56-39.89-6.82z"/><path class="st7" d="m999.61 501.23c3.18 9.32 12.2 9.67 19.14 13.52 4.98 2.76 19.27 3.82 5.19 15.06-5.84 4.67 1.24 4.72 3.61 5.02 24.05 3 13.54 7.61 4.54 21.21-10.8 16.31-13.44 13.23-21.46.4-4.24-6.78-10.22-12.42-20.5-15.95 5.33 10.16 10.52 20.39 16.06 30.43 2.26 4.09 5.57 8.38.14 11.64-6.06 3.64-9.74.16-11.94-6.05-5.5-15.5-11.28-30.89-16.95-46.32-.01.01 1.3-1.79 1.3-1.79 4.82-10.76-4.22-32.58 20.87-27.17z"/><path class="st8" d="m999.61 501.23c-20.68-1.89-5.08 25.17-20.86 27.18-2.59-2.24-6.35-6.94-7.61-6.32-9.65 4.73-18.15 6.78-21.47-6.83-2.63-10.78-10.96-23.1 6.5-30.12 4.52-1.82 7.68-7.15 11.46-10.87l.1-.08c17.34-9.34 13.71 11.84 21.98 15.7 3.46-.15 6.92-.29 10.38-.44 2.83 4 3.18 7.91-.45 11.65z"/><path class="st9" d="m989.71 489.89c-13 3.01-10.06-17.16-21.98-15.7-1.9-24.26 3.63-47.37 8.62-73.79 14 13.35-3.86 24.86 3.89 35.18 11.87-4.63 7.62-23.36 24.41-28.96-4.79 21.81-22.03 36.12-19.12 59.06 7.56-5.82 14.23-10.95 23.24-17.88-1.57 18.28-18.29 26.63-19.06 42.09z"/><path class="st10" d="m999.64 501.09c.15-3.88.3-7.76.45-11.64 12.4-11.3 32.39-6.04 43.51-20.56.53-.7 5.59.66 6.76 2.35 2.51 3.61.63 6.68-3.26 8.38-5.34 2.34-10.68 4.7-16.27 7.16 7.85 10.3 25.62-6.99 25.06 7.72-.58 15.26-17.34 4.72-26.66 6.35-9.6 1.67-19.71.29-29.59.24z"/><path class="st11" d="m1021.7 472.19c5.79-11.38 10.94-22.86 23.85-24.39 1.47-.17 5.15 4.02 4.81 5.42-3.85 15.52-22.62 6.63-28.66 18.97z"/><path class="st7" d="m902.32 512.69c-.55.72-1.03 1.97-1.67 2.07-10.19 1.53-16.74 13.86-28.44 10.07-1.23-.4-2.54-6.07-1.62-6.96 9.22-9.01 20.32-8.26 31.65-5.3 0-.01.08.12.08.12z"/></g></g><style type="text/css">
	.st0{fill:#FAD4D8;}
	.st1{fill:#F5ABC4;}
	.st2{fill:#F5A8BD;}
	.st3{fill:#F5A8BE;}
	.st4{fill:#F5A5B8;}
	.st5{fill:#F6B5CD;}
	.st6{fill:#F5A6B7;}
	.st7{fill:#CA838D;}
	.st8{fill:#976265;}
	.st9{fill:#CC808F;}
	.st10{fill:#C5808A;}
	.st11{fill:#B6747D;}
</style></svg>
