<svg width="273.84mm" height="223.53mm" version="1.1" viewBox="0 0 273.84 223.53" xml:space="preserve" xmlns="http://www.w3.org/2000/svg"><g transform="translate(98.029 -107.57)"><g transform="matrix(.26458 0 0 .26458 -98.031 107.57)"><path class="st0" d="m449.36 804.82c-75.39 17.89-148.41 5.65-219.15-19.08-36.13-12.63-55.07-44.77-58.1-78.54-4.23-47.06-37.16-67.64-73.35-87.75-86.09-47.84-119.76-136.96-85.59-223.75 9.27-23.54 18.89-48.54 19.75-73.14 2.03-57.82 40.47-84.33 90.03-101.31 28.53-9.77 43.57-22.79 56.18-52.14 29.11-67.77 92.87-97.25 167.91-99.39 39.25-1.12 70.35-16.42 102.08-33.89 36.95-20.34 77.92-28.74 119.5-34.2 50.96-6.69 93.23 7.25 133 40.83 30.52 25.77 69.02 45.36 107.23 60.16 57.68 22.34 96.74 62.29 108.77 115.38 9.65 42.6 37.77 64.44 65.67 90.54 12.9 69.12 5.78 132.35-54.46 182.52-22.98 19.14-23.23 48.72-27.46 75.05-7.96 49.64-32.88 85.59-83.55 104.16-20.47 7.5-38.48 19.39-55.17 32.78-30.13 24.18-65.71 34.63-103.24 26.44-79.99-17.45-148.72 5.76-214.24 45.75-11.26 6.87-22.58 13.77-35.78 17.06 14.65.37 29.83-.76 39.97 12.52z"/><path class="st1" d="m449.36 804.82h-83.57c98.79-55.11 179.16-120.35 294.91-88.08 34.65 9.66 69.74.59 96.74-27.16 9.94-10.21 23.04-20.93 36.62-24.16 76.71-18.24 94.9-73.2 98.43-137.12 1.05-19.08 6.98-34.62 22.38-45.76 48.81-35.31 65.53-82.27 59.61-138.63-1.28-12.16-3.96-25.82 8.81-35.36 48.94 47.61 66.2 101.43 38.48 165.39-13.84 31.94-6.55 66.14-7.2 99.31-1.64 83.75-47.83 139.96-133.81 153.82-52.21 8.41-94.62 30.79-131.39 64.91-54.31 50.4-121.59 59.47-191.75 48.99-37.32-5.6-61.07-52.79-108.26-36.15z"/><path class="st2" d="m689.53 462.23c4.56 5.74 9.11 11.48 13.67 17.22-4.93 20.67-20.18 10.5-31.37 8.55-41.38-7.21-69.04 15.26-64.41 53.7 2.06 17.1 9.68 39.91-13.52 44.4-27.23 5.27-19-23.75-27.95-37.04-6.1 3.52-3.53 10.06-5.41 15.05-5.89 15.66-5.57 39.98-28.61 38.46-21.75-1.44-16.58-23.62-17.02-38.93-1.15-39.67-25.5-27.61-48.15-19.46-10.38 4.49-12.04 19.61-29.82 19.58-2.95-21.8 28.81-29.52 22.94-54.17-29.88 13.39-46.86 44.7-80.35 49.86-1.64.25-5.48-4-5.78-6.43-.31-2.55 2.41-5.43 3.81-8.17 17.01-15.42 4.91-39.02 17.77-56.1 5.51-7.31-4.13-2.82-5.9-3.33-11.42-3.29-18.1-10.41-13.81-20.91 5.25-12.83 17.45-12.02 27.93-9.58-11.85-7.99-46.23-1.55-35.73-26.45 8.91-21.13 35.17 5.08 51.65-1.83 5.25 2.37 4.76.37-.31-.56-21.19-3.88-57.11.99-51.45-26.97 5.14-25.4 36.61-6.45 56.51-4.59 9.92.93 19.63 4 29.5.41 3.54-2.35 7.3-4.39 11.11-6.32 7.66-3.85 15.74-6.12 24.56-5.16 21.6-39.96-25.92-62.82-27.52-105.3 24.34 28.9 73.06 22.61 69.32 74 27.39-35.79 13.91-71.04 19.18-103.74 39.91 16.9 15.55 50.84 23.52 74.95 17.08-27.72 14.49-64.65 38.12-91.76 16.77 16.92 5.63 37.6 8.48 56.4-5.23 9.37-2.78 21.38 5.06 23.42 7.26 1.89 16.33-7.96 23.35-14.35 6.02-11.06-4.61-29.75 17.95-34.34 8.83 20.77-7.57 36.04-11.6 53.57-3.62 15.74-25.44 30.99-7.23 47.08 15.48 13.68 27.62-14.91 44.88-8.56 3.72 12.44-4.27 20.49-11.66 29.1-37.39 43.56-37.31 43.62 8.29 78.3z"/><path class="st3" d="m466.75 544.19c5.99-23.82 25.63-32.34 45.77-24.32 39.53 15.74 6.46 50.22 18.05 77.57 27.75-24.53 11.49-59.25 25.17-90.3 28.93 19.74 25.97 49.4 34.04 83.16 18.79-30.61 1.01-48.19-1.77-66.71-1.55-10.3-13.39-21.27-1.97-30.42 10.65-8.54 18.94 8.93 29.34 8.92 6.63-14.83-19.4-22.08-5.34-35.29 12.28-11.54 24.78.17 37.2.59 19.85.68 33.99 22.82 55.95 12.05 23.12 10.61 49.59 23.46 43.6 50.69-4.68 21.26-26.22 35.59-53.36 35.45-23.26-.12-31.42 13.23-32.6 33.65-1.8 31-19.03 38.73-47.11 24.51-22.53-11.41-37.65-14.18-49.61 14.78-6.75 16.33-21.89 38.17-50.59 24.05-24.79-12.19-38.89-26.37-27.71-56.51 8.19-22.08 10.18-47.64-19.06-61.87z"/><path class="st4" d="m469.11 393.3c-4.16 27.91-25.7 19.67-42.43 16.75-17.25-3-33.81-9.61-60.08-17.45 22.17 31.2 51.4 25.24 78.15 33.42-26.67 11.84-49.07 5.01-80.14-.69 22.38 23.5 48.61 18.12 65.64 30.54-13.44 11.85-33.89-3.03-47.1 12.67 13.79 22.02 32.58-.09 48.49 5.27-.53 22.29-27.51 10.87-35.84 26.83 2.56 13.62 20.11 3.11 28.19 12.4-11.35 15.97-29.26 23.46-46.43 31.84-10.79-11.85-21.37-.79-32.05.22-8.39.8-23.52-2.75-22.06-5.12 25.55-41.34-22.71-50.85-33.94-75.81-8.81-19.58 11.59-30.24 28.84-37.89 35.83-15.89 51.63-34.94 15.05-66.41-12.48-10.73-22.09-27.93-12.08-42.74 13.24-19.57 30.41-3.18 43.55 3.24 24.15 11.8 49.69-3.96 73.25 5.96 31.26 7.83 29.07 42.53 51.49 57.45l-.25-.31c-4.13 8.05-11.94 9.25-20.15 9.71-9.38-6.34-18.9-12.52-26.81-20.58 7.64 8.38 17.25 14.45 26.71 20.7z"/><path class="st5" d="m136.2 586.2c-39.09-28.96-38.32-69.52-23.02-108.75 14.87-38.15 18.47-73.27-.64-110.08-24.01-46.25 28.31-56.01 38.63-88.37 58.78 108.6 20.78 207.22-14.97 307.2z"/><path class="st3" d="m535.79 80.221c-25.91 46.09-27.58 106.35-83.28 135.5-30.75 16.09-151.59 16.39-179.63-2.04-5.55-3.65-11.83-6.87-10.52-14.45 1.56-9.04 9.11-14.01 17.42-14.61 20.05-1.44 40.43-3.15 60.32-1.32 55.79 5.12 101.2-8.16 135.93-53.43 15.19-19.81 39.56-33.29 59.76-49.65z"/><path class="st6" d="m689.53 462.23c-20.45-2.99-50.95.75-53.62-22.01-2.59-22.06 3.76-49.64 33.33-62.42 9.57-4.13 15.83-15.1 23.62-22.95 27.49 14.92 54.88-5.93 82.68-.18 13.07 2.71 27.97 1.2 32.31 16.57 3.68 13.04-8.55 19.65-16.49 27.15-16.96 16-38.72 25.01-60.89 31.6-19.12 5.68-31.83 16.34-40.94 32.24z"/><path class="st7" d="m611.99 231.63c-4.33 47.12-14.74 92.07-53.54 139.76-5.6-48.59 16.1-87.73-8.11-122.94 20.55-5.61 41.1-11.21 61.65-16.82z"/><path class="st7" d="m648.87 297.1c-8.04 19.86-14.62 40.91-44.5 48.57-.67-22.99 3.15-41.29 16.09-57.64 6.9 10.23 17.71 9.5 28.41 9.07z"/><path class="st8" d="m489.62 383.79c-29.2-9.48-30.9-41.05-51.49-57.45-1.09-4.54-4.5-10.17-2.8-13.41 4.3-8.24 11.46-4.55 14.46.96 12.81 23.55 33.96 42.85 39.83 69.9z"/><path class="st9" d="m507.31 478.32c-10.9-.95-25.08 5.22-31.76-6.39-6.4-11.13 1.56-22.97 10.89-28.45 15.31-9 5.71-25.49 17-36.98 11.75-11.96 19.14-27.09 38.88-20.36 17.85 6.09 45.72-3.65 52.45 15.68 5.49 15.76-4.85 36.18-20.82 49.93-19.04 16.39-39.25 29.17-66.64 26.57z"/><path class="st10" d="m469.11 393.3c-28.69-.54-35.95-28.77-57.63-38.37 29.88-1.04 43.09 19.54 57.75 38.25z"/></g></g><style type="text/css">
	.st0{fill:#FAD4D8;}
	.st1{fill:#F5ABC4;}
	.st2{fill:#F5A8BD;}
	.st3{fill:#F5A8BE;}
	.st4{fill:#F5A5B8;}
	.st5{fill:#F6B5CD;}
	.st6{fill:#F5A6B7;}
	.st7{fill:#CA838D;}
	.st8{fill:#976265;}
	.st9{fill:#CC808F;}
	.st10{fill:#C5808A;}
	.st11{fill:#B6747D;}
</style><style type="text/css">
	.st0{fill:#F5A5B8;}
	.st1{fill:#FBD6D6;}
	.st2{fill:#FBD6D5;}
	.st3{fill:#FBD5D6;}
	.st4{fill:#F6B7CE;}
	.st5{fill:#D395A8;}
	.st6{fill:#F6B4CA;}
	.st7{fill:#F6B3C9;}
	.st8{fill:#F7BACB;}
	.st9{fill:#DA7596;}
	.st10{fill:#91605C;}
	.st11{fill:#CB8A9D;}
	.st12{fill:#F7BACD;}
	.st13{fill:#CE91A2;}
	.st14{fill:#CD889D;}
	.st15{fill:#CC8E9F;}
	.st16{fill:#F8C4D6;}
</style><style type="text/css">
	.st0{fill:#FBD6D6;}
	.st1{fill:#F5A4B8;}
	.st2{fill:#DA7498;}
	.st3{fill:#CD7E95;}
	.st4{fill:#F7B8CB;}
	.st5{fill:#F7B7CB;}
	.st6{fill:#F7BCD1;}
	.st7{fill:#C58D98;}
	.st8{fill:#BD8F96;}
	.st9{fill:#CB8C9E;}
	.st10{fill:#C9889B;}
	.st11{fill:#BA9996;}
</style><style type="text/css">
	.st0{fill:#FBD5D7;}
	.st1{fill:#F5A5B8;}
	.st2{fill:#C6788F;}
	.st3{fill:#F7B9CE;}
	.st4{fill:#F7BBCF;}
	.st5{fill:#F7BACC;}
	.st6{fill:#F7B9CF;}
	.st7{fill:#F6BAC9;}
	.st8{fill:#C48493;}
	.st9{fill:#906263;}
	.st10{fill:#C28095;}
</style></svg>
